<svg xmlns="http://www.w3.org/2000/svg" xmlns:xlink="http://www.w3.org/1999/xlink" width="500" zoomAndPan="magnify" viewBox="0 0 375 374.999991" height="500" preserveAspectRatio="xMidYMid meet" version="1.0"><defs><filter x="0%" y="0%" width="100%" height="100%" id="f85af35747"><feColorMatrix values="0 0 0 0 1 0 0 0 0 1 0 0 0 0 1 0 0 0 1 0" color-interpolation-filters="sRGB"/></filter><g/><clipPath id="ecca8f9b00"><path d="M 138.101562 103 L 237 103 L 237 184.519531 L 138.101562 184.519531 Z M 138.101562 103 " clip-rule="nonzero"/></clipPath><clipPath id="71cbf7e53a"><path d="M 150.101562 103 L 224.898438 103 C 231.527344 103 236.898438 108.371094 236.898438 115 L 236.898438 172.347656 C 236.898438 178.976562 231.527344 184.347656 224.898438 184.347656 L 150.101562 184.347656 C 143.472656 184.347656 138.101562 178.976562 138.101562 172.347656 L 138.101562 115 C 138.101562 108.371094 143.472656 103 150.101562 103 " clip-rule="nonzero"/></clipPath><clipPath id="ceb5f27931"><path d="M 163.355469 111.828125 L 211.355469 111.828125 L 211.355469 135.828125 L 163.355469 135.828125 Z M 163.355469 111.828125 " clip-rule="nonzero"/></clipPath><mask id="a477c86fca"><g filter="url(#f85af35747)"><rect x="-37.5" width="450" fill="#000000" y="-37.499999" height="449.999989" fill-opacity="0.149"/></g></mask><clipPath id="8f775a921f"><path d="M 0.636719 1.316406 L 48.636719 1.316406 L 48.636719 25.316406 L 0.636719 25.316406 Z M 0.636719 1.316406 " clip-rule="nonzero"/></clipPath><clipPath id="d582991eb9"><rect x="0" width="50" y="0" height="26"/></clipPath></defs><g clip-path="url(#ecca8f9b00)"><g clip-path="url(#71cbf7e53a)"><path fill="#171717" d="M 138.101562 103 L 237.179688 103 L 237.179688 184.519531 L 138.101562 184.519531 Z M 138.101562 103 " fill-opacity="1" fill-rule="nonzero"/></g></g><g clip-path="url(#ceb5f27931)"><path fill="#ffffff" d="M 204.199219 111.828125 C 204.199219 121.113281 196.660156 128.652344 187.375 128.652344 C 178.09375 128.652344 170.550781 121.113281 170.550781 111.828125 L 163.375 111.828125 C 163.375 125.085938 174.121094 135.828125 187.375 135.828125 C 200.632812 135.828125 211.335938 125.085938 211.335938 111.828125 Z M 204.199219 111.828125 " fill-opacity="1" fill-rule="nonzero"/></g><g mask="url(#a477c86fca)"><g transform="matrix(1, 0, 0, 1, 163, 78)"><g clip-path="url(#d582991eb9)"><g clip-path="url(#8f775a921f)"><path fill="#171717" d="M 7.792969 25.316406 C 7.792969 16.03125 15.332031 8.492188 24.617188 8.492188 C 33.902344 8.492188 41.441406 16.03125 41.441406 25.316406 L 48.617188 25.316406 C 48.617188 12.058594 37.875 1.316406 24.617188 1.316406 C 11.359375 1.316406 0.65625 12.058594 0.65625 25.316406 Z M 7.792969 25.316406 " fill-opacity="1" fill-rule="nonzero"/></g></g></g></g><g fill="#171717" fill-opacity="1"><g transform="translate(43.325781, 243.926336)"><g><path d="M 18.140625 0.328125 C 15.097656 0.328125 12.3125 -0.375 9.78125 -1.78125 C 7.25 -3.195312 5.238281 -5.171875 3.75 -7.703125 C 2.257812 -10.234375 1.515625 -13.082031 1.515625 -16.25 C 1.515625 -19.40625 2.257812 -22.242188 3.75 -24.765625 C 5.238281 -27.285156 7.25 -29.25 9.78125 -30.65625 C 12.3125 -32.070312 15.097656 -32.78125 18.140625 -32.78125 C 21.171875 -32.78125 23.953125 -32.070312 26.484375 -30.65625 C 29.015625 -29.25 31.007812 -27.285156 32.46875 -24.765625 C 33.925781 -22.242188 34.65625 -19.40625 34.65625 -16.25 C 34.65625 -13.082031 33.921875 -10.234375 32.453125 -7.703125 C 30.984375 -5.171875 28.988281 -3.195312 26.46875 -1.78125 C 23.945312 -0.375 21.171875 0.328125 18.140625 0.328125 Z M 18.140625 -6.859375 C 20.710938 -6.859375 22.773438 -7.71875 24.328125 -9.4375 C 25.878906 -11.15625 26.65625 -13.425781 26.65625 -16.25 C 26.65625 -19.101562 25.878906 -21.378906 24.328125 -23.078125 C 22.773438 -24.785156 20.710938 -25.640625 18.140625 -25.640625 C 15.523438 -25.640625 13.441406 -24.796875 11.890625 -23.109375 C 10.347656 -21.421875 9.578125 -19.132812 9.578125 -16.25 C 9.578125 -13.394531 10.347656 -11.113281 11.890625 -9.40625 C 13.441406 -7.707031 15.523438 -6.859375 18.140625 -6.859375 Z M 18.140625 -6.859375 "/></g></g></g><g fill="#171717" fill-opacity="1"><g transform="translate(78.116215, 243.926336)"><g><path d="M 31.765625 0 L 23.890625 0 L 10.71875 -19.9375 L 10.71875 0 L 2.859375 0 L 2.859375 -32.3125 L 10.71875 -32.3125 L 23.890625 -12.296875 L 23.890625 -32.3125 L 31.765625 -32.3125 Z M 31.765625 0 "/></g></g></g><g fill="#171717" fill-opacity="1"><g transform="translate(111.34198, 243.926336)"><g><path d="M 10.71875 -6.078125 L 21.03125 -6.078125 L 21.03125 0 L 2.859375 0 L 2.859375 -32.3125 L 10.71875 -32.3125 Z M 10.71875 -6.078125 "/></g></g></g><g fill="#171717" fill-opacity="1"><g transform="translate(131.912361, 243.926336)"><g><path d="M 10.71875 -32.3125 L 10.71875 0 L 2.859375 0 L 2.859375 -32.3125 Z M 10.71875 -32.3125 "/></g></g></g><g fill="#171717" fill-opacity="1"><g transform="translate(144.107196, 243.926336)"><g><path d="M 31.765625 0 L 23.890625 0 L 10.71875 -19.9375 L 10.71875 0 L 2.859375 0 L 2.859375 -32.3125 L 10.71875 -32.3125 L 23.890625 -12.296875 L 23.890625 -32.3125 L 31.765625 -32.3125 Z M 31.765625 0 "/></g></g></g><g fill="#171717" fill-opacity="1"><g transform="translate(177.332962, 243.926336)"><g><path d="M 10.71875 -26 L 10.71875 -19.46875 L 21.265625 -19.46875 L 21.265625 -13.390625 L 10.71875 -13.390625 L 10.71875 -6.3125 L 22.640625 -6.3125 L 22.640625 0 L 2.859375 0 L 2.859375 -32.3125 L 22.640625 -32.3125 L 22.640625 -26 Z M 10.71875 -26 "/></g></g></g><g fill="#171717" fill-opacity="1"><g transform="translate(200.837493, 243.926336)"><g><path d="M 13.71875 0.328125 C 11.601562 0.328125 9.707031 -0.046875 8.03125 -0.796875 C 6.363281 -1.554688 5.050781 -2.601562 4.09375 -3.9375 C 3.144531 -5.269531 2.65625 -6.8125 2.625 -8.5625 L 7.09375 -8.5625 C 7.238281 -7.0625 7.859375 -5.796875 8.953125 -4.765625 C 10.046875 -3.734375 11.632812 -3.21875 13.71875 -3.21875 C 15.707031 -3.21875 17.273438 -3.71875 18.421875 -4.71875 C 19.578125 -5.71875 20.15625 -7 20.15625 -8.5625 C 20.15625 -9.789062 19.816406 -10.785156 19.140625 -11.546875 C 18.472656 -12.316406 17.628906 -12.898438 16.609375 -13.296875 C 15.597656 -13.703125 14.234375 -14.132812 12.515625 -14.59375 C 10.398438 -15.144531 8.707031 -15.695312 7.4375 -16.25 C 6.164062 -16.800781 5.078125 -17.664062 4.171875 -18.84375 C 3.265625 -20.03125 2.8125 -21.617188 2.8125 -23.609375 C 2.8125 -25.359375 3.253906 -26.90625 4.140625 -28.25 C 5.035156 -29.601562 6.285156 -30.648438 7.890625 -31.390625 C 9.503906 -32.128906 11.351562 -32.5 13.4375 -32.5 C 16.445312 -32.5 18.910156 -31.742188 20.828125 -30.234375 C 22.742188 -28.734375 23.828125 -26.742188 24.078125 -24.265625 L 19.46875 -24.265625 C 19.3125 -25.484375 18.664062 -26.5625 17.53125 -27.5 C 16.394531 -28.4375 14.894531 -28.90625 13.03125 -28.90625 C 11.28125 -28.90625 9.851562 -28.453125 8.75 -27.546875 C 7.644531 -26.640625 7.09375 -25.375 7.09375 -23.75 C 7.09375 -22.582031 7.421875 -21.628906 8.078125 -20.890625 C 8.734375 -20.160156 9.546875 -19.601562 10.515625 -19.21875 C 11.484375 -18.832031 12.84375 -18.394531 14.59375 -17.90625 C 16.707031 -17.320312 18.410156 -16.742188 19.703125 -16.171875 C 20.992188 -15.609375 22.097656 -14.734375 23.015625 -13.546875 C 23.929688 -12.367188 24.390625 -10.769531 24.390625 -8.75 C 24.390625 -7.175781 23.972656 -5.695312 23.140625 -4.3125 C 22.316406 -2.9375 21.09375 -1.816406 19.46875 -0.953125 C 17.84375 -0.0976562 15.925781 0.328125 13.71875 0.328125 Z M 13.71875 0.328125 "/></g></g></g><g fill="#171717" fill-opacity="1"><g transform="translate(226.470034, 243.926336)"><g><path d="M 23.296875 -32.078125 L 23.296875 -28.671875 L 14.546875 -28.671875 L 14.546875 0 L 10.359375 0 L 10.359375 -28.671875 L 1.5625 -28.671875 L 1.5625 -32.078125 Z M 23.296875 -32.078125 "/></g></g></g><g fill="#171717" fill-opacity="1"><g transform="translate(249.985669, 243.926336)"><g><path d="M 18.09375 0.328125 C 15.113281 0.328125 12.394531 -0.367188 9.9375 -1.765625 C 7.488281 -3.160156 5.550781 -5.109375 4.125 -7.609375 C 2.695312 -10.117188 1.984375 -12.9375 1.984375 -16.0625 C 1.984375 -19.195312 2.695312 -22.015625 4.125 -24.515625 C 5.550781 -27.015625 7.488281 -28.960938 9.9375 -30.359375 C 12.394531 -31.753906 15.113281 -32.453125 18.09375 -32.453125 C 21.09375 -32.453125 23.820312 -31.753906 26.28125 -30.359375 C 28.738281 -28.960938 30.671875 -27.019531 32.078125 -24.53125 C 33.492188 -22.050781 34.203125 -19.226562 34.203125 -16.0625 C 34.203125 -12.90625 33.492188 -10.082031 32.078125 -7.59375 C 30.671875 -5.101562 28.738281 -3.160156 26.28125 -1.765625 C 23.820312 -0.367188 21.09375 0.328125 18.09375 0.328125 Z M 18.09375 -3.3125 C 20.332031 -3.3125 22.347656 -3.832031 24.140625 -4.875 C 25.941406 -5.914062 27.351562 -7.40625 28.375 -9.34375 C 29.40625 -11.28125 29.921875 -13.519531 29.921875 -16.0625 C 29.921875 -18.644531 29.40625 -20.894531 28.375 -22.8125 C 27.351562 -24.726562 25.953125 -26.207031 24.171875 -27.25 C 22.390625 -28.289062 20.363281 -28.8125 18.09375 -28.8125 C 15.820312 -28.8125 13.796875 -28.289062 12.015625 -27.25 C 10.234375 -26.207031 8.828125 -24.726562 7.796875 -22.8125 C 6.773438 -20.894531 6.265625 -18.644531 6.265625 -16.0625 C 6.265625 -13.519531 6.773438 -11.28125 7.796875 -9.34375 C 8.828125 -7.40625 10.238281 -5.914062 12.03125 -4.875 C 13.832031 -3.832031 15.851562 -3.3125 18.09375 -3.3125 Z M 18.09375 -3.3125 "/></g></g></g><g fill="#171717" fill-opacity="1"><g transform="translate(284.776101, 243.926336)"><g><path d="M 20.4375 0 L 12.796875 -13.125 L 7.734375 -13.125 L 7.734375 0 L 3.546875 0 L 3.546875 -32.078125 L 13.90625 -32.078125 C 16.320312 -32.078125 18.367188 -31.660156 20.046875 -30.828125 C 21.722656 -30.003906 22.972656 -28.882812 23.796875 -27.46875 C 24.628906 -26.0625 25.046875 -24.453125 25.046875 -22.640625 C 25.046875 -20.429688 24.40625 -18.484375 23.125 -16.796875 C 21.851562 -15.109375 19.945312 -13.988281 17.40625 -13.4375 L 25.453125 0 Z M 7.734375 -16.484375 L 13.90625 -16.484375 C 16.175781 -16.484375 17.878906 -17.039062 19.015625 -18.15625 C 20.148438 -19.28125 20.71875 -20.773438 20.71875 -22.640625 C 20.71875 -24.546875 20.15625 -26.019531 19.03125 -27.0625 C 17.914062 -28.101562 16.207031 -28.625 13.90625 -28.625 L 7.734375 -28.625 Z M 7.734375 -16.484375 "/></g></g></g><g fill="#171717" fill-opacity="1"><g transform="translate(311.375052, 243.926336)"><g><path d="M 7.734375 -28.671875 L 7.734375 -17.953125 L 19.421875 -17.953125 L 19.421875 -14.5 L 7.734375 -14.5 L 7.734375 -3.453125 L 20.8125 -3.453125 L 20.8125 0 L 3.546875 0 L 3.546875 -32.125 L 20.8125 -32.125 L 20.8125 -28.671875 Z M 7.734375 -28.671875 "/></g></g></g></svg>