<svg width="50" height="50" viewBox="0 0 50 50" fill="none" xmlns="http://www.w3.org/2000/svg">
<circle cx="25" cy="25" r="25" fill="black"/>
<path d="M31.75 12C29.14 12 26.635 13.215 25 15.135C23.365 13.215 20.86 12 18.25 12C13.63 12 10 15.63 10 20.25C10 25.92 15.1 30.54 22.825 37.56L25 39.525L27.175 37.545C34.9 30.54 40 25.92 40 20.25C40 15.63 36.37 12 31.75 12ZM25.15 35.325L25 35.475L24.85 35.325C17.71 28.86 13 24.585 13 20.25C13 17.25 15.25 15 18.25 15C20.56 15 22.81 16.485 23.605 18.54H26.41C27.19 16.485 29.44 15 31.75 15C34.75 15 37 17.25 37 20.25C37 24.585 32.29 28.86 25.15 35.325Z" fill="white"/>
</svg>
