<svg width="199" height="216" viewBox="0 0 199 216" fill="none" xmlns="http://www.w3.org/2000/svg">
<g clip-path="url(#clip0_247_232)">
<path d="M13.7348 45.942L22.6644 54.6364C26.5346 58.4066 31.4182 57.831 35.7641 53.3662C39.9856 49.0311 40.0261 44.5475 36.156 40.7773L27.2264 32.0829C25.9102 30.8018 25.5075 29.2018 25.3562 27.5478L25.2021 27.3965L21.7347 30.9586L21.8887 31.1099C23.5454 31.2153 25.1562 31.5748 26.4724 32.8558L35.4019 41.5502C38.6019 44.6664 38.5478 48.1825 35.783 51.0203C33.0182 53.8581 29.5318 54.0337 26.3048 50.8933L17.3753 42.1989C16.0591 40.9178 15.224 39.5016 15.0024 38.1287L14.8726 38.0044L9.47006 43.5529L9.59979 43.6772C10.9781 43.8637 12.4159 44.6583 13.7321 45.9393L13.7348 45.942Z" fill="white"/>
<path d="M51.407 38.9477L51.5016 39.1423L55.9745 36.972L55.8799 36.7775C54.3583 36.1153 52.9664 35.2288 52.1664 33.5748L44.9206 18.6346L68.8417 30.7343L70.0417 30.1533L61.0987 11.7131C60.296 10.0591 60.4608 8.41861 60.8852 6.81324L60.7906 6.61865L56.3177 8.78888L56.4123 8.98347C57.9339 9.64561 59.3257 10.5321 60.1257 12.1861L65.6742 23.6264L46.2693 13.6617L40.4991 16.459L40.5775 16.6211C42.0991 17.2833 43.4909 18.1698 44.2909 19.8238L51.1908 34.0505C51.9935 35.7045 51.8286 37.345 51.4043 38.9504L51.407 38.9477Z" fill="white"/>
<path d="M81.0766 6.36993L83.6684 21.9318C83.9711 23.7425 83.8036 25.3776 83.1711 26.6154L83.2009 26.7938L90.8385 25.5209L90.8088 25.3425C89.8088 24.3776 89.1224 22.8858 88.8197 21.0723L86.2278 5.51049C85.9251 3.69702 86.0927 2.06462 86.7251 0.826812L86.6954 0.648438L79.0577 1.92138L79.0875 2.09976C80.0874 3.0646 80.7739 4.55646 81.0766 6.36993Z" fill="white"/>
<path d="M111.676 25.478C112.368 30.1022 116.019 33.1346 120.916 33.7481L121.951 33.8778L122.524 29.3022C118.092 28.7482 114.43 28.1455 112.587 25.7374C113.149 25.8807 113.752 25.9915 114.36 26.0671C121.795 26.9968 127.267 22.4159 128.24 14.6241C129.213 6.83242 125.038 1.04877 117.606 0.119057C110.171 -0.810652 104.698 3.77033 103.725 11.562C102.876 18.3538 105.954 23.6375 111.679 25.478H111.676ZM109.262 12.2539C110.152 5.14057 113.233 0.516346 117.487 1.04877C121.776 1.58389 123.589 6.82161 122.7 13.9323C121.811 21.0429 118.765 25.6726 114.476 25.1374C110.222 24.605 108.373 19.3646 109.262 12.2539Z" fill="white"/>
<path d="M158.502 32.9018L164.269 21.8561C165.121 20.2264 166.537 19.3832 168.077 18.7643L168.177 18.5724L163.772 16.2724L163.672 16.4643C164.048 18.0805 164.161 19.7264 163.313 21.3561L157.545 32.4018C155.478 36.3612 152.094 37.3152 148.583 35.4828C145.072 33.6504 143.905 30.3586 145.989 26.3668L151.756 15.3184C152.607 13.6914 153.724 12.486 154.975 11.8779L155.059 11.7185L148.194 8.13477L148.11 8.29422C148.329 9.66716 147.978 11.2725 147.126 12.8995L141.359 23.9452C138.859 28.7343 140.81 33.2477 146.332 36.1314C151.697 38.9314 156.002 37.6855 158.502 32.8964V32.9018Z" fill="white"/>
<path d="M164.853 47.791L177.558 61.207L183.172 57.1314L182.923 56.8692C179.269 58.1962 176.129 58.3908 172.688 54.7558L169.964 51.8801L178.201 44.0803L180.404 46.4073C182.361 48.4748 182.253 50.5099 181.026 52.5639L181.274 52.8261L187.42 47.0073L187.172 46.7451C185.053 47.8586 183.015 47.8559 181.058 45.7884L178.853 43.4614L186.961 35.7832L189.139 38.0858C192.582 41.7209 192.215 44.8452 190.69 48.4208L190.939 48.6829L195.315 43.2992L183.155 30.459L183.026 30.5833C182.785 31.9535 181.931 33.3562 180.596 34.6184L169.14 45.4641C167.804 46.7262 166.358 47.5019 164.977 47.6694L164.848 47.7937L164.853 47.791Z" fill="white"/>
<path d="M26.9237 163.659C27.3129 163.199 27.5859 162.702 27.7426 162.164C27.8994 161.626 27.9372 161.064 27.8588 160.478C27.8264 160.245 27.7751 160.016 27.7129 159.786C27.9886 160.067 28.294 160.291 28.6345 160.453C29.2372 160.743 29.8831 160.87 30.5723 160.832C31.2615 160.794 31.9074 160.626 32.5155 160.326C33.6668 159.756 34.4073 158.948 34.7371 157.902C35.0641 156.856 34.9371 155.743 34.3533 154.562L31.402 148.602C31.3426 148.483 31.248 148.402 31.1155 148.359C30.9831 148.313 30.8588 148.321 30.7399 148.381L16.1213 155.621C16.0023 155.681 15.9213 155.775 15.878 155.908C15.8348 156.04 15.8402 156.164 15.8996 156.283L18.9266 162.397C19.2347 163.016 19.6077 163.559 20.0482 164.021C20.4887 164.483 20.9833 164.834 21.5374 165.078C22.0887 165.318 22.686 165.429 23.3265 165.405C23.967 165.38 24.6427 165.194 25.3508 164.843C26.0156 164.513 26.5427 164.118 26.9318 163.659H26.9237ZM30.7534 149.529L33.4074 154.891C33.8965 155.881 34.0128 156.772 33.7506 157.562C33.4884 158.353 32.9317 158.962 32.075 159.386C30.9669 159.935 29.9858 160.051 29.1318 159.74C28.2778 159.426 27.6291 158.84 27.1832 157.975L24.5292 152.616L30.7534 149.535V149.529ZM21.8428 164.091C20.9671 163.643 20.2698 162.894 19.7509 161.845L17.0185 156.329L23.6211 153.062L26.3535 158.578C26.6967 159.272 26.894 159.956 26.9426 160.632C26.9913 161.307 26.8535 161.926 26.5264 162.494C26.1994 163.059 25.6535 163.534 24.8859 163.913C23.7346 164.483 22.7211 164.543 21.8455 164.094L21.8428 164.091Z" fill="white"/>
<path d="M41.8369 173.71C41.7018 173.701 41.5856 173.739 41.4829 173.823L35.5019 178.693C35.0154 179.088 34.4073 179.307 33.6776 179.35C32.9479 179.393 32.2263 179.272 31.5182 178.988C30.8101 178.704 30.221 178.274 29.7534 177.701C28.9723 176.742 28.6886 175.845 28.8967 175.004C29.1048 174.164 29.6642 173.374 30.5696 172.637L36.5505 167.766C36.6532 167.683 36.7127 167.575 36.7343 167.442C36.7532 167.31 36.7154 167.185 36.6235 167.069C36.5289 166.956 36.4154 166.893 36.283 166.885C36.1479 166.877 36.0316 166.915 35.9289 166.999L29.948 171.869C29.2075 172.472 28.6588 173.115 28.3021 173.801C27.9453 174.485 27.8156 175.207 27.9129 175.966C28.0102 176.726 28.3832 177.501 29.0264 178.293C29.421 178.78 29.8966 179.172 30.4507 179.477C31.0047 179.78 31.5885 179.985 32.1966 180.096C32.7668 180.199 33.302 180.19 33.802 180.08L32.9344 180.788C32.129 181.444 31.2939 181.863 30.4237 182.05C29.5561 182.236 28.7237 182.193 27.9237 181.917C27.1264 181.642 26.4264 181.134 25.821 180.393C25.3724 179.845 25.0589 179.277 24.8805 178.69C24.6995 178.104 24.5859 177.65 24.5373 177.328C24.5292 177.188 24.4643 177.082 24.3481 177.02C24.2319 176.958 24.1022 176.939 23.9589 176.972C23.8157 177.004 23.7184 177.082 23.6724 177.207C23.6238 177.331 23.6049 177.464 23.613 177.604C23.6481 178.063 23.786 178.585 24.0238 179.166C24.2643 179.747 24.6211 180.331 25.0994 180.92C25.8075 181.788 26.6291 182.407 27.5643 182.771C28.4994 183.136 29.4858 183.226 30.5236 183.039C31.5615 182.853 32.5723 182.358 33.556 181.558L42.1045 174.596C42.2072 174.512 42.2666 174.404 42.2883 174.272C42.3072 174.139 42.2693 174.015 42.1774 173.899C42.0829 173.785 41.9693 173.723 41.8369 173.715V173.71Z" fill="white"/>
<path d="M66.258 188.185C66.3688 188.255 66.4931 188.277 66.6229 188.25C66.7553 188.225 66.8607 188.15 66.9364 188.023C67.0066 187.909 67.0255 187.785 66.9931 187.65C66.9607 187.515 66.8877 187.412 66.7769 187.342L58.8474 182.447C58.7338 182.377 58.6122 182.358 58.4744 182.39C58.3366 182.423 58.2366 182.496 58.1663 182.607L49.5962 196.487C49.5259 196.601 49.5097 196.722 49.5394 196.86C49.5719 196.995 49.6449 197.098 49.7557 197.168L57.6852 202.063C57.7987 202.133 57.9203 202.155 58.0501 202.128C58.1825 202.103 58.2879 202.028 58.3636 201.901C58.4338 201.787 58.4501 201.666 58.4203 201.528C58.3906 201.39 58.3149 201.29 58.2041 201.22L50.7367 196.609L54.6447 190.279L61.1662 194.304C61.277 194.374 61.4013 194.396 61.5311 194.368C61.6635 194.344 61.7689 194.268 61.8446 194.141C61.9149 194.028 61.9311 193.906 61.9013 193.768C61.8716 193.631 61.7959 193.531 61.6851 193.46L55.1636 189.436L58.7852 183.569L66.2526 188.179L66.258 188.185Z" fill="white"/>
<path d="M73.6308 189.263C73.5092 189.212 73.3822 189.215 73.2551 189.269C73.1281 189.323 73.0362 189.409 72.9849 189.531L66.3742 205.52C66.3229 205.641 66.3202 205.766 66.3688 205.893C66.4148 206.02 66.5066 206.109 66.6445 206.166C66.7661 206.217 66.8931 206.214 67.0201 206.16C67.1472 206.106 67.2391 206.02 67.2904 205.898L73.9011 189.909C73.9524 189.788 73.9524 189.663 73.9065 189.536C73.8605 189.409 73.7687 189.32 73.6308 189.263Z" fill="white"/>
<path d="M89.1899 200.015C89.0467 199.982 88.917 200.004 88.8062 200.079C88.6954 200.155 88.6251 200.258 88.5954 200.387L88.1251 202.441C88.1089 202.377 88.1008 202.314 88.0819 202.247C87.9278 201.704 87.6602 201.169 87.2819 200.644C86.9035 200.117 86.4305 199.655 85.863 199.252C85.2954 198.852 84.6495 198.569 83.9279 198.404C82.8198 198.15 81.7658 198.196 80.7658 198.539C79.7658 198.885 78.8983 199.477 78.1659 200.315C77.4334 201.152 76.928 202.174 76.6524 203.379C76.3767 204.585 76.3848 205.723 76.6794 206.795C76.974 207.868 77.4956 208.785 78.2442 209.539C78.9929 210.293 79.9199 210.798 81.028 211.052C81.509 211.163 82.0279 211.209 82.582 211.193C83.136 211.176 83.682 211.074 84.2252 210.885C84.7657 210.695 85.2792 210.403 85.7576 210.006C86.0684 209.749 86.3495 209.433 86.6062 209.074L86.2224 210.747C85.8765 212.255 85.1576 213.382 84.0657 214.12C82.9739 214.857 81.6658 215.052 80.1415 214.703C79.7091 214.603 79.3199 214.484 78.9794 214.349C78.6388 214.212 78.3523 214.074 78.1226 213.936C77.8929 213.798 77.7091 213.69 77.5767 213.609C77.2551 213.385 77.047 213.166 76.9524 212.957C76.8551 212.749 76.7281 212.628 76.5686 212.59C76.4389 212.56 76.3308 212.576 76.2389 212.641C76.147 212.706 76.0875 212.801 76.0578 212.93C75.9902 213.22 76.147 213.541 76.52 213.898C76.8956 214.255 77.3875 214.593 77.9983 214.909C78.6091 215.228 79.2361 215.46 79.8793 215.606C81.0523 215.876 82.136 215.871 83.1279 215.59C84.1225 215.311 84.9738 214.779 85.6873 213.995C86.4008 213.212 86.8981 212.201 87.1819 210.966L89.5602 200.606C89.5899 200.479 89.571 200.355 89.5061 200.239C89.4386 200.123 89.3332 200.047 89.1899 200.015ZM87.444 205.852C87.1981 206.928 86.763 207.822 86.1441 208.533C85.5252 209.244 84.7927 209.744 83.9495 210.033C83.1063 210.322 82.2171 210.358 81.2874 210.144C80.355 209.931 79.5712 209.501 78.9334 208.855C78.2956 208.209 77.8578 207.428 77.6199 206.512C77.3821 205.595 77.3821 204.623 77.6199 203.596C77.8605 202.552 78.2848 201.674 78.8983 200.96C79.5091 200.247 80.2415 199.744 81.0955 199.45C81.9496 199.155 82.8414 199.115 83.7738 199.328C84.7063 199.542 85.49 199.958 86.1251 200.577C86.7603 201.196 87.2035 201.96 87.4494 202.871C87.6981 203.782 87.6981 204.777 87.4494 205.852H87.444Z" fill="white"/>
<path d="M106.454 201.014C106.306 201.014 106.187 201.06 106.095 201.158C106.003 201.255 105.954 201.368 105.954 201.501L105.838 208.693C105.817 209.944 105.452 210.895 104.741 211.541C104.03 212.19 103.065 212.503 101.846 212.484C100.644 212.465 99.6978 212.119 99.0086 211.449C98.3195 210.779 97.9843 209.817 98.006 208.566L98.1222 201.374C98.1222 201.241 98.0816 201.125 97.9924 201.025C97.9033 200.925 97.7843 200.874 97.6357 200.871C97.5033 200.871 97.3871 200.917 97.2871 201.014C97.1871 201.112 97.1357 201.225 97.133 201.358L97.0168 208.549C96.9898 210.147 97.4195 211.355 98.306 212.168C99.1897 212.982 100.365 213.401 101.833 213.425C103.317 213.449 104.511 213.068 105.425 212.284C106.336 211.501 106.803 210.309 106.83 208.711L106.946 201.52C106.946 201.387 106.906 201.271 106.817 201.171C106.727 201.071 106.608 201.02 106.46 201.017L106.454 201.014Z" fill="white"/>
<path d="M126.057 207.577C125.957 207.504 125.851 207.479 125.738 207.501C125.592 207.531 125.47 207.631 125.37 207.801C125.2 208.206 124.951 208.601 124.627 208.985C124.303 209.371 123.916 209.704 123.468 209.987C123.022 210.271 122.522 210.468 121.973 210.579C120.827 210.812 119.811 210.755 118.927 210.414C118.043 210.074 117.319 209.528 116.757 208.785C116.195 208.041 115.814 207.177 115.614 206.19C115.592 206.085 115.573 205.979 115.557 205.874L125.073 203.95C125.203 203.923 125.305 203.847 125.381 203.723C125.457 203.598 125.481 203.471 125.454 203.342C125.23 202.396 124.889 201.612 124.435 200.988C123.981 200.366 123.454 199.874 122.851 199.517C122.249 199.161 121.603 198.936 120.914 198.85C120.224 198.763 119.538 198.788 118.86 198.925C117.922 199.115 117.089 199.547 116.36 200.225C115.63 200.901 115.1 201.771 114.768 202.831C114.435 203.89 114.406 205.098 114.681 206.455C114.938 207.731 115.43 208.787 116.154 209.625C116.879 210.463 117.757 211.047 118.789 211.374C119.822 211.704 120.946 211.744 122.157 211.501C123.111 211.309 123.93 210.89 124.613 210.247C125.3 209.604 125.827 208.909 126.197 208.16C126.246 208.066 126.259 207.963 126.235 207.85C126.213 207.736 126.151 207.644 126.054 207.571L126.057 207.577ZM115.56 203.736C115.706 203.001 115.96 202.366 116.322 201.831C116.684 201.296 117.111 200.863 117.6 200.539C118.089 200.212 118.576 200.001 119.06 199.904C119.754 199.763 120.454 199.777 121.162 199.944C121.868 200.112 122.511 200.442 123.089 200.928C123.668 201.417 124.084 202.079 124.338 202.92L124.381 203.139L115.468 204.942C115.457 204.517 115.487 204.117 115.562 203.736H115.56Z" fill="white"/>
<path d="M138.394 186.82C138.34 186.698 138.254 186.612 138.129 186.558C138.005 186.504 137.878 186.507 137.743 186.569C137.608 186.628 137.519 186.723 137.475 186.85C137.432 186.977 137.438 187.101 137.492 187.223L140.813 194.728C140.797 194.712 140.781 194.696 140.764 194.679C140.259 194.228 139.694 193.887 139.07 193.658C138.446 193.431 137.8 193.323 137.132 193.339C136.465 193.355 135.821 193.501 135.202 193.774C134.208 194.214 133.429 194.866 132.865 195.728C132.3 196.59 131.986 197.571 131.924 198.671C131.862 199.771 132.081 200.887 132.581 202.017C133.081 203.147 133.759 204.06 134.616 204.752C135.473 205.447 136.411 205.876 137.432 206.047C138.454 206.217 139.462 206.082 140.456 205.641C141.119 205.349 141.681 204.947 142.14 204.436C142.6 203.928 142.948 203.363 143.189 202.741C143.424 202.13 143.546 201.517 143.551 200.903L144.497 203.039C144.551 203.16 144.637 203.247 144.762 203.301C144.883 203.355 145.013 203.352 145.151 203.29C145.272 203.236 145.356 203.144 145.408 203.014C145.459 202.885 145.456 202.757 145.402 202.639L138.4 186.817L138.394 186.82ZM142.848 200.609C142.81 201.544 142.562 202.376 142.1 203.103C141.637 203.83 140.978 204.384 140.119 204.766C139.289 205.133 138.446 205.241 137.586 205.09C136.727 204.939 135.935 204.563 135.211 203.966C134.486 203.368 133.911 202.585 133.484 201.622C133.051 200.644 132.857 199.687 132.905 198.758C132.954 197.828 133.211 196.995 133.681 196.266C134.151 195.536 134.8 194.987 135.629 194.62C136.473 194.247 137.324 194.131 138.181 194.274C139.037 194.417 139.821 194.787 140.535 195.379C141.248 195.974 141.821 196.76 142.256 197.739C142.689 198.717 142.889 199.676 142.851 200.612L142.848 200.609Z" fill="white"/>
<path d="M152.407 177.277C152.329 177.172 152.224 177.107 152.091 177.08C151.959 177.056 151.835 177.085 151.716 177.175C151.597 177.264 151.529 177.375 151.516 177.507C151.502 177.639 151.535 177.761 151.613 177.866L156.507 184.455C156.488 184.445 156.47 184.431 156.451 184.418C155.856 184.088 155.232 183.882 154.572 183.796C153.913 183.71 153.262 183.75 152.613 183.912C151.964 184.074 151.37 184.358 150.826 184.761C149.953 185.409 149.337 186.218 148.975 187.182C148.616 188.147 148.524 189.174 148.705 190.261C148.886 191.347 149.345 192.388 150.081 193.38C150.818 194.371 151.68 195.112 152.667 195.598C153.656 196.085 154.667 196.301 155.699 196.242C156.732 196.182 157.686 195.828 158.559 195.18C159.14 194.747 159.599 194.231 159.934 193.634C160.269 193.036 160.486 192.407 160.583 191.75C160.678 191.101 160.661 190.48 160.532 189.877L161.923 191.753C162.002 191.858 162.107 191.923 162.24 191.95C162.372 191.974 162.496 191.944 162.615 191.855C162.721 191.777 162.783 191.669 162.805 191.531C162.826 191.393 162.796 191.272 162.718 191.163L152.402 177.272L152.407 177.277ZM159.607 192.342C159.318 193.153 158.794 193.839 158.04 194.398C157.313 194.939 156.513 195.231 155.64 195.271C154.767 195.315 153.913 195.123 153.075 194.698C152.237 194.274 151.502 193.639 150.875 192.793C150.237 191.934 149.837 191.044 149.678 190.126C149.518 189.207 149.589 188.339 149.886 187.523C150.183 186.707 150.697 186.028 151.424 185.488C152.164 184.937 152.97 184.639 153.834 184.591C154.702 184.542 155.548 184.728 156.375 185.153C157.202 185.574 157.934 186.218 158.572 187.077C159.21 187.936 159.615 188.828 159.786 189.747C159.956 190.669 159.897 191.534 159.605 192.344L159.607 192.342Z" fill="white"/>
<path d="M168.513 168.78C168.413 168.694 168.296 168.653 168.161 168.656C168.026 168.661 167.913 168.718 167.815 168.832C167.718 168.945 167.677 169.067 167.694 169.199C167.71 169.332 167.767 169.442 167.867 169.529L169.523 170.959C168.883 170.756 168.234 170.68 167.58 170.734C166.923 170.788 166.294 170.969 165.694 171.277C165.091 171.586 164.559 172.007 164.096 172.542C163.386 173.367 162.959 174.286 162.81 175.302C162.664 176.318 162.791 177.331 163.191 178.339C163.594 179.35 164.269 180.264 165.215 181.083C166.15 181.891 167.156 182.429 168.226 182.702C169.299 182.972 170.334 182.969 171.337 182.691C172.339 182.412 173.199 181.856 173.921 181.018C174.393 180.469 174.731 179.869 174.934 179.215C175.137 178.564 175.22 177.918 175.185 177.277C175.15 176.637 175.012 176.04 174.772 175.485L176.456 176.939C176.556 177.026 176.672 177.067 176.807 177.064C176.942 177.061 177.056 177.002 177.153 176.888C177.239 176.788 177.277 176.669 177.266 176.529C177.256 176.388 177.202 176.277 177.102 176.191L168.51 168.78H168.513ZM174.304 178.018C174.199 178.885 173.845 179.666 173.242 180.366C172.639 181.066 171.918 181.531 171.075 181.761C170.234 181.993 169.356 181.988 168.445 181.745C167.534 181.502 166.672 181.031 165.861 180.331C165.05 179.631 164.469 178.853 164.121 177.999C163.772 177.142 163.656 176.285 163.772 175.431C163.891 174.575 164.245 173.804 164.837 173.118C165.44 172.421 166.161 171.953 167.004 171.723C167.845 171.491 168.715 171.491 169.615 171.723C170.515 171.956 171.35 172.404 172.126 173.072C172.937 173.772 173.529 174.556 173.904 175.421C174.277 176.288 174.412 177.153 174.307 178.021L174.304 178.018Z" fill="white"/>
<path d="M183.031 167.24L177.683 164.145C177.183 163.856 176.731 163.453 176.329 162.932C175.926 162.413 175.604 161.84 175.364 161.218C175.126 160.594 174.999 159.983 174.983 159.383C174.966 158.786 175.091 158.256 175.356 157.799C175.488 157.572 175.62 157.415 175.756 157.332C175.891 157.248 175.983 157.161 176.031 157.078C176.096 156.964 176.107 156.845 176.064 156.726C176.02 156.605 175.934 156.507 175.804 156.434C175.591 156.31 175.388 156.345 175.199 156.542C175.01 156.737 174.858 156.934 174.742 157.134C174.337 157.834 174.134 158.54 174.131 159.251C174.131 159.964 174.266 160.648 174.542 161.302C174.788 161.88 175.107 162.404 175.496 162.88L173.21 161.559C173.096 161.494 172.972 161.475 172.842 161.502C172.712 161.532 172.61 161.61 172.534 161.737C172.469 161.85 172.453 161.975 172.488 162.11C172.523 162.245 172.599 162.345 172.712 162.413L182.534 168.094C182.647 168.158 182.772 168.177 182.901 168.15C183.031 168.121 183.134 168.042 183.21 167.915C183.274 167.802 183.291 167.677 183.255 167.542C183.22 167.407 183.145 167.307 183.031 167.24Z" fill="white"/>
<path d="M189.353 154.61L178.512 150.097C178.391 150.045 178.266 150.043 178.139 150.089C178.012 150.135 177.92 150.227 177.864 150.362C177.812 150.483 177.815 150.608 177.866 150.737C177.918 150.867 178.007 150.956 178.129 151.008L188.969 155.521C189.09 155.572 189.215 155.575 189.342 155.529C189.469 155.483 189.561 155.391 189.617 155.256C189.669 155.135 189.666 155.008 189.615 154.88C189.563 154.753 189.474 154.662 189.353 154.61Z" fill="white"/>
<path d="M175.072 150.137L175.256 150.213C175.469 150.302 175.674 150.302 175.872 150.213C176.069 150.126 176.218 149.959 176.32 149.716C176.415 149.489 176.423 149.272 176.347 149.072C176.272 148.87 176.126 148.726 175.912 148.637L175.729 148.562C175.515 148.472 175.31 148.472 175.112 148.562C174.915 148.648 174.772 148.799 174.683 149.013C174.58 149.256 174.566 149.483 174.642 149.691C174.715 149.899 174.858 150.051 175.072 150.137Z" fill="white"/>
<path d="M113.038 110.616V110.208C120.603 108.981 128.984 104.076 128.984 94.2626C128.984 81.6899 116.719 77.2954 103.841 77.2954H73.4849V77.8062C75.8362 80.9737 77.0632 85.4709 77.0632 90.6843V135.451C77.0632 140.664 75.8362 145.161 73.4849 148.329V148.84H103.841C117.538 148.84 131.743 144.037 131.743 129.216C131.743 117.87 122.441 111.738 113.038 110.614V110.616ZM91.8818 87.3303C91.8818 83.171 95.2844 79.7602 99.4465 79.7494C108.441 79.7494 113.654 86.0871 113.654 94.468C113.654 102.849 108.441 109.289 99.3438 109.289H91.8818V87.3303ZM100.16 146.391C100.136 146.391 100.109 146.391 100.084 146.391C95.5357 146.372 91.8818 142.621 91.8818 138.072V111.846H99.6492C109.665 111.846 116.206 118.184 116.206 129.221C116.206 140.259 109.665 146.391 100.16 146.391Z" fill="white"/>
<path d="M198.352 108.919H190.923C187.239 108.919 185.561 108.763 184.712 107.801C183.774 106.738 183.707 104.406 183.707 100.695V94.2738C183.707 94.0711 183.542 93.9062 183.339 93.9062C183.137 93.9062 182.972 94.0711 182.972 94.2738V100.695C182.972 108.614 182.701 108.919 175.756 108.919H168.326C168.123 108.919 167.958 109.084 167.958 109.287C167.958 109.49 168.123 109.655 168.326 109.655H175.756C182.704 109.655 182.972 109.963 182.972 117.879V124.3C182.972 124.503 183.137 124.668 183.339 124.668C183.542 124.668 183.707 124.503 183.707 124.3V117.879C183.707 114.165 183.774 111.836 184.712 110.773C185.564 109.809 187.239 109.655 190.923 109.655H198.352C198.555 109.655 198.72 109.49 198.72 109.287C198.72 109.084 198.555 108.919 198.352 108.919ZM185.75 109.325C185.074 109.53 184.561 109.833 184.158 110.29C183.774 110.725 183.512 111.276 183.337 112C182.977 110.495 182.274 109.722 180.923 109.325C180.923 109.314 180.926 109.303 180.926 109.29C180.926 109.276 180.926 109.265 180.923 109.255C182.274 108.857 182.977 108.084 183.337 106.579C183.515 107.303 183.774 107.855 184.158 108.29C184.561 108.744 185.074 109.049 185.75 109.255C185.75 109.265 185.747 109.279 185.747 109.29C185.747 109.301 185.747 109.314 185.75 109.325Z" fill="white"/>
<path d="M177.845 104.162C177.939 104.162 178.034 104.127 178.104 104.054C178.247 103.911 178.247 103.676 178.104 103.533L175.588 101.017C175.445 100.873 175.212 100.873 175.066 101.017C174.923 101.16 174.923 101.395 175.066 101.538L177.583 104.054C177.656 104.127 177.747 104.162 177.842 104.162H177.845Z" fill="white"/>
<path d="M174.52 100.838C174.615 100.838 174.71 100.803 174.78 100.73C174.923 100.587 174.923 100.352 174.78 100.208L173.669 99.0977C173.526 98.9544 173.293 98.9544 173.148 99.0977C173.004 99.2409 173.004 99.4733 173.148 99.6193L174.258 100.73C174.331 100.803 174.423 100.838 174.518 100.838H174.52Z" fill="white"/>
<path d="M189.104 114.535C188.961 114.392 188.728 114.392 188.582 114.535C188.436 114.678 188.439 114.914 188.582 115.057L191.099 117.573C191.172 117.646 191.263 117.681 191.358 117.681C191.453 117.681 191.547 117.646 191.617 117.573C191.761 117.43 191.761 117.195 191.617 117.051L189.101 114.535H189.104Z" fill="white"/>
<path d="M192.428 117.859C192.285 117.716 192.053 117.716 191.907 117.859C191.763 118.003 191.763 118.238 191.907 118.381L193.02 119.492C193.093 119.565 193.185 119.6 193.28 119.6C193.374 119.6 193.469 119.565 193.539 119.492C193.682 119.349 193.682 119.113 193.539 118.97L192.426 117.859H192.428Z" fill="white"/>
<path d="M178.104 114.519C177.961 114.376 177.729 114.376 177.583 114.519L174.948 117.154C174.804 117.297 174.804 117.532 174.948 117.676C175.02 117.749 175.112 117.784 175.207 117.784C175.302 117.784 175.396 117.749 175.466 117.676L178.101 115.041C178.245 114.897 178.245 114.662 178.101 114.519H178.104Z" fill="white"/>
<path d="M191.623 101.017C191.48 100.873 191.244 100.873 191.101 101.017L188.585 103.533C188.442 103.676 188.442 103.911 188.585 104.054C188.658 104.127 188.75 104.162 188.845 104.162C188.939 104.162 189.034 104.127 189.104 104.054L191.62 101.538C191.763 101.395 191.763 101.16 191.62 101.017H191.623Z" fill="white"/>
<path d="M192.428 100.73L193.542 99.6193C193.685 99.476 193.685 99.2436 193.542 99.0977C193.398 98.9544 193.166 98.9544 193.02 99.0977L191.907 100.208C191.763 100.352 191.763 100.584 191.907 100.73C191.98 100.803 192.071 100.838 192.166 100.838C192.261 100.838 192.355 100.803 192.426 100.73H192.428Z" fill="white"/>
<path d="M174.78 117.859C174.637 117.716 174.404 117.716 174.258 117.859L173.148 118.97C173.004 119.113 173.004 119.349 173.148 119.492C173.221 119.565 173.312 119.6 173.407 119.6C173.502 119.6 173.596 119.565 173.666 119.492L174.777 118.381C174.92 118.238 174.92 118.003 174.777 117.859H174.78Z" fill="white"/>
<path d="M172.423 104.638C172.342 104.825 172.431 105.041 172.618 105.122L176.047 106.584C176.093 106.603 176.142 106.614 176.191 106.614C176.334 106.614 176.469 106.53 176.529 106.389C176.61 106.203 176.52 105.987 176.334 105.906L172.904 104.444C172.718 104.363 172.502 104.452 172.421 104.638H172.423Z" fill="white"/>
<path d="M194.055 113.454L190.626 111.992C190.439 111.911 190.223 112 190.142 112.187C190.061 112.373 190.15 112.589 190.336 112.67L193.766 114.132C193.812 114.151 193.861 114.162 193.909 114.162C194.053 114.162 194.188 114.078 194.247 113.938C194.328 113.751 194.239 113.535 194.053 113.454H194.055Z" fill="white"/>
<path d="M187.504 98.5679L186.042 101.998C185.961 102.184 186.05 102.4 186.236 102.481C186.282 102.5 186.331 102.511 186.38 102.511C186.523 102.511 186.658 102.427 186.718 102.287L188.18 98.8571C188.261 98.6706 188.172 98.4544 187.985 98.3733C187.799 98.2922 187.582 98.3814 187.501 98.5679H187.504Z" fill="white"/>
<path d="M178.685 120.2C178.731 120.219 178.78 120.23 178.829 120.23C178.972 120.23 179.107 120.146 179.166 120.005L180.628 116.576C180.71 116.389 180.62 116.173 180.434 116.092C180.247 116.011 180.031 116.1 179.95 116.287L178.488 119.716C178.407 119.903 178.496 120.119 178.683 120.2H178.685Z" fill="white"/>
<path d="M178.907 98.2816C178.718 98.3573 178.626 98.5708 178.704 98.76L180.096 102.219C180.153 102.363 180.293 102.449 180.437 102.449C180.483 102.449 180.528 102.441 180.574 102.422C180.764 102.346 180.855 102.133 180.78 101.944L179.388 98.4843C179.312 98.2952 179.099 98.2033 178.91 98.2789L178.907 98.2816Z" fill="white"/>
<path d="M187.628 120.319C187.674 120.319 187.72 120.311 187.766 120.292C187.955 120.216 188.047 120.003 187.972 119.813L186.58 116.354C186.504 116.165 186.288 116.073 186.101 116.149C185.912 116.224 185.82 116.44 185.896 116.627L187.288 120.086C187.345 120.23 187.482 120.316 187.628 120.316V120.319Z" fill="white"/>
<path d="M190.542 106.755C190.588 106.755 190.634 106.747 190.68 106.728L194.139 105.336C194.328 105.26 194.42 105.047 194.344 104.857C194.269 104.668 194.053 104.576 193.866 104.652L190.407 106.044C190.217 106.12 190.126 106.333 190.201 106.522C190.258 106.665 190.399 106.752 190.542 106.752V106.755Z" fill="white"/>
<path d="M175.993 111.846L172.534 113.238C172.345 113.314 172.253 113.53 172.329 113.716C172.385 113.86 172.526 113.946 172.672 113.946C172.718 113.946 172.764 113.938 172.81 113.919L176.269 112.527C176.458 112.451 176.55 112.235 176.474 112.049C176.399 111.86 176.183 111.768 175.996 111.843L175.993 111.846Z" fill="white"/>
<path d="M22.9698 109.655H30.3993C30.602 109.655 30.7669 109.49 30.7669 109.287C30.7669 109.084 30.602 108.919 30.3993 108.919H22.9698C19.2861 108.919 17.6077 108.763 16.7591 107.801C15.8213 106.738 15.7537 104.406 15.7537 100.695V94.2738C15.7537 94.0711 15.5888 93.9062 15.3861 93.9062C15.1834 93.9062 15.0186 94.0711 15.0186 94.2738V100.695C15.0186 108.614 14.7483 108.919 7.80253 108.919H0.367559C0.164861 108.919 0 109.084 0 109.287C0 109.49 0.164861 109.655 0.367559 109.655H7.79713C14.7456 109.655 15.0132 109.963 15.0132 117.879V124.3C15.0132 124.503 15.178 124.668 15.3807 124.668C15.5834 124.668 15.7483 124.503 15.7483 124.3V117.879C15.7483 114.165 15.8159 111.836 16.7537 110.773C17.605 109.809 19.2807 109.655 22.9644 109.655H22.9698ZM15.3834 111.998C15.024 110.492 14.3213 109.719 12.97 109.322C12.97 109.311 12.9727 109.301 12.9727 109.287C12.9727 109.273 12.9727 109.263 12.97 109.252C14.3213 108.855 15.024 108.082 15.3834 106.576C15.5618 107.301 15.8213 107.852 16.205 108.287C16.6077 108.741 17.1212 109.046 17.7969 109.252C17.7969 109.263 17.7942 109.276 17.7942 109.287C17.7942 109.298 17.7942 109.311 17.7969 109.322C17.1212 109.528 16.6077 109.83 16.205 110.287C15.8213 110.722 15.5591 111.273 15.3834 111.998Z" fill="white"/>
<path d="M9.63221 104.054C9.70519 104.127 9.79708 104.162 9.89167 104.162C9.98626 104.162 10.0809 104.127 10.1511 104.054C10.2944 103.911 10.2944 103.676 10.1511 103.533L7.63496 101.017C7.49172 100.873 7.25659 100.873 7.11335 101.017C6.97011 101.16 6.97011 101.395 7.11335 101.538L9.62951 104.054H9.63221Z" fill="white"/>
<path d="M6.30527 100.73C6.37824 100.803 6.47013 100.838 6.56472 100.838C6.65932 100.838 6.75391 100.803 6.82418 100.73C6.96742 100.587 6.96742 100.352 6.82418 100.208L5.71339 99.0977C5.57015 98.9544 5.33772 98.9544 5.19178 99.0977C5.04854 99.2409 5.04854 99.4733 5.19178 99.6193L6.30257 100.73H6.30527Z" fill="white"/>
<path d="M20.6293 114.535C20.486 114.678 20.486 114.914 20.6293 115.057L23.1454 117.573C23.2184 117.646 23.3103 117.681 23.4049 117.681C23.4995 117.681 23.5941 117.646 23.6643 117.573C23.8076 117.43 23.8076 117.195 23.6643 117.051L21.1482 114.535C21.0049 114.392 20.7698 114.392 20.6266 114.535H20.6293Z" fill="white"/>
<path d="M23.9562 117.859C23.813 118.003 23.813 118.238 23.9562 118.381L25.0697 119.492C25.1427 119.565 25.2346 119.6 25.3292 119.6C25.4238 119.6 25.5184 119.565 25.5886 119.492C25.7319 119.349 25.7319 119.113 25.5886 118.97L24.4751 117.859C24.3319 117.716 24.0995 117.716 23.9535 117.859H23.9562Z" fill="white"/>
<path d="M9.63222 114.519L6.99714 117.154C6.8539 117.297 6.8539 117.532 6.99714 117.676C7.07011 117.749 7.162 117.784 7.25659 117.784C7.35119 117.784 7.44578 117.749 7.51605 117.676L10.1511 115.041C10.2944 114.897 10.2944 114.662 10.1511 114.519C10.0079 114.376 9.77275 114.376 9.62951 114.519H9.63222Z" fill="white"/>
<path d="M23.6698 101.017C23.5265 100.873 23.2941 100.873 23.1481 101.017L20.632 103.533C20.4887 103.676 20.4887 103.911 20.632 104.054C20.705 104.127 20.7968 104.162 20.8914 104.162C20.986 104.162 21.0806 104.127 21.1509 104.054L23.6671 101.538C23.8103 101.395 23.8103 101.16 23.6671 101.017H23.6698Z" fill="white"/>
<path d="M24.4751 100.73L25.5886 99.6193C25.7319 99.476 25.7319 99.2436 25.5886 99.0977C25.4454 98.9544 25.2103 98.9544 25.067 99.0977L23.9535 100.208C23.8103 100.352 23.8103 100.584 23.9535 100.73C24.0265 100.803 24.1184 100.838 24.213 100.838C24.3076 100.838 24.4022 100.803 24.4724 100.73H24.4751Z" fill="white"/>
<path d="M6.30527 117.859L5.19448 118.97C5.05124 119.113 5.05124 119.349 5.19448 119.492C5.26745 119.565 5.35934 119.6 5.45394 119.6C5.54853 119.6 5.64312 119.565 5.71339 119.492L6.82418 118.381C6.96742 118.238 6.96742 118.003 6.82418 117.859C6.68094 117.716 6.44581 117.716 6.30257 117.859H6.30527Z" fill="white"/>
<path d="M4.66476 105.12L8.09441 106.582C8.14036 106.601 8.189 106.611 8.23765 106.611C8.38089 106.611 8.51602 106.528 8.57548 106.387C8.65656 106.201 8.56738 105.984 8.38089 105.903L4.95124 104.441C4.76476 104.36 4.54854 104.449 4.46746 104.636C4.38639 104.822 4.47557 105.038 4.66206 105.12H4.66476Z" fill="white"/>
<path d="M25.9589 114.16C26.1021 114.16 26.2373 114.076 26.2967 113.935C26.3778 113.749 26.2886 113.533 26.1021 113.452L22.6725 111.989C22.486 111.908 22.2698 111.998 22.1887 112.184C22.1076 112.371 22.1968 112.587 22.3833 112.668L25.8129 114.13C25.8589 114.149 25.9075 114.16 25.9562 114.16H25.9589Z" fill="white"/>
<path d="M19.5509 98.5679L18.0888 101.998C18.0077 102.184 18.0969 102.4 18.2834 102.481C18.3293 102.5 18.378 102.511 18.4266 102.511C18.5699 102.511 18.705 102.427 18.7644 102.287L20.2266 98.8571C20.3077 98.6706 20.2185 98.4544 20.032 98.3733C19.8455 98.2922 19.6293 98.3814 19.5482 98.5679H19.5509Z" fill="white"/>
<path d="M12.4835 116.095C12.297 116.014 12.0808 116.103 11.9997 116.29L10.5376 119.719C10.4565 119.906 10.5457 120.122 10.7322 120.203C10.7781 120.222 10.8268 120.233 10.8754 120.233C11.0187 120.233 11.1538 120.149 11.2133 120.008L12.6754 116.579C12.7565 116.392 12.6673 116.176 12.4808 116.095H12.4835Z" fill="white"/>
<path d="M10.9538 98.2816C10.7646 98.3573 10.6727 98.5708 10.7484 98.76L12.1403 102.219C12.197 102.363 12.3349 102.449 12.4808 102.449C12.5268 102.449 12.5727 102.441 12.6186 102.422C12.8078 102.346 12.8997 102.133 12.824 101.944L11.4322 98.4843C11.3565 98.2952 11.143 98.2033 10.9538 98.2789V98.2816Z" fill="white"/>
<path d="M18.1455 116.151C17.9564 116.227 17.8645 116.443 17.9401 116.63L19.332 120.089C19.3888 120.232 19.5293 120.319 19.6725 120.319C19.7185 120.319 19.7644 120.311 19.8104 120.292C19.9996 120.216 20.0914 120.003 20.0131 119.813L18.6212 116.354C18.5455 116.165 18.3293 116.073 18.1428 116.149L18.1455 116.151Z" fill="white"/>
<path d="M22.5887 106.755C22.6346 106.755 22.6806 106.747 22.7265 106.728L26.1859 105.336C26.3751 105.26 26.467 105.047 26.3913 104.857C26.3156 104.668 26.0994 104.576 25.9129 104.652L22.4536 106.044C22.2644 106.12 22.1725 106.333 22.2482 106.522C22.3049 106.665 22.4427 106.752 22.5887 106.752V106.755Z" fill="white"/>
<path d="M8.51873 112.049C8.44306 111.86 8.22685 111.768 8.04036 111.843L4.58098 113.235C4.3918 113.311 4.29991 113.527 4.37558 113.714C4.43233 113.857 4.57017 113.943 4.71881 113.943C4.76476 113.943 4.8107 113.935 4.85665 113.916L8.31603 112.524C8.50522 112.449 8.59711 112.233 8.52143 112.046L8.51873 112.049Z" fill="white"/>
</g>
<defs>
<clipPath id="clip0_247_232">
<rect width="198.72" height="215.803" fill="white"/>
</clipPath>
</defs>
</svg>
