<svg width="885" height="318" viewBox="0 0 885 318" fill="none" xmlns="http://www.w3.org/2000/svg">
<path d="M58 197.2C58 206.533 60.8 215.467 66.4 224C72 232.533 79.3333 239.467 88.4 244.8C97.7333 250.133 107.867 252.8 118.8 252.8C130.8 252.8 141.467 250.133 150.8 244.8C160.133 239.467 167.467 232.533 172.8 224C178.4 215.467 181.2 206.533 181.2 197.2V11.6H238.4V198.4C238.4 220 233.067 239.2 222.4 256C211.733 272.533 197.333 285.6 179.2 295.2C161.067 304.533 140.933 309.2 118.8 309.2C96.9333 309.2 76.9333 304.533 58.8 295.2C40.9333 285.6 26.6667 272.533 16 256C5.33334 239.2 2.26498e-06 220 2.26498e-06 198.4V11.6H58V197.2ZM531.944 318L308.744 116.4L325.944 126L327.144 306H268.344V-1.81198e-05H270.744L489.144 200.8L476.344 195.2L475.144 11.6H533.544V318H531.944ZM569.359 11.6H627.359V306H569.359V11.6ZM884.144 281.6C880.944 284.267 874.944 287.867 866.144 292.4C857.61 296.933 847.077 300.933 834.544 304.4C822.01 307.867 808.144 309.467 792.944 309.2C769.744 308.667 748.944 304.533 730.544 296.8C712.41 288.8 696.944 278 684.144 264.4C671.61 250.8 662.01 235.2 655.344 217.6C648.677 200 645.344 181.2 645.344 161.2C645.344 138.8 648.677 118.267 655.344 99.6C662.277 80.9333 672.01 64.8 684.544 51.2C697.344 37.6 712.544 27.0667 730.144 19.6C747.744 12.1333 767.21 8.39999 788.544 8.39999C808.277 8.39999 825.744 11.0667 840.944 16.4C856.144 21.7333 868.544 27.4666 878.144 33.6L855.344 88.4C848.677 83.3333 839.744 78.1333 828.544 72.8C817.61 67.2 804.944 64.4 790.544 64.4C779.344 64.4 768.544 66.8 758.144 71.6C748.01 76.1333 738.944 82.6667 730.944 91.2C723.21 99.7333 717.077 109.733 712.544 121.2C708.01 132.4 705.744 144.667 705.744 158C705.744 172.133 707.744 185.067 711.744 196.8C716.01 208.533 722.01 218.667 729.744 227.2C737.477 235.467 746.677 241.867 757.344 246.4C768.277 250.933 780.544 253.2 794.144 253.2C809.877 253.2 823.344 250.667 834.544 245.6C845.744 240.533 854.277 235.2 860.144 229.6L884.144 281.6Z" fill="#282828"/>
</svg>
