<svg width="30" height="36" viewBox="0 0 30 36" fill="none" xmlns="http://www.w3.org/2000/svg">
<path d="M15 0.666656C16.0943 0.666656 17.178 0.882205 18.189 1.30099C19.2001 1.71978 20.1187 2.33361 20.8926 3.10743C21.6664 3.88125 22.2802 4.79991 22.699 5.81096C23.1178 6.82201 23.3333 7.90564 23.3333 8.99999V12.3333H28.3333C28.7754 12.3333 29.1993 12.5089 29.5118 12.8215C29.8244 13.134 30 13.558 30 14V34C30 34.442 29.8244 34.8659 29.5118 35.1785C29.1993 35.4911 28.7754 35.6667 28.3333 35.6667H1.66667C1.22464 35.6667 0.800716 35.4911 0.488155 35.1785C0.175595 34.8659 0 34.442 0 34V14C0 13.558 0.175595 13.134 0.488155 12.8215C0.800716 12.5089 1.22464 12.3333 1.66667 12.3333H6.66667V8.99999C6.66667 6.78985 7.54464 4.67024 9.10744 3.10743C10.6702 1.54463 12.7899 0.666656 15 0.666656ZM23.3333 17.3333H20V19C20.0005 19.4248 20.1631 19.8334 20.4547 20.1423C20.7464 20.4512 21.1449 20.637 21.569 20.6619C21.9931 20.6868 22.4106 20.5489 22.7364 20.2762C23.0621 20.0036 23.2715 19.6168 23.3217 19.195L23.3333 19V17.3333ZM10 17.3333H6.66667V19C6.66714 19.4248 6.8298 19.8334 7.12141 20.1423C7.41303 20.4512 7.81159 20.637 8.23566 20.6619C8.65973 20.6868 9.0773 20.5489 9.40305 20.2762C9.72881 20.0036 9.93816 19.6168 9.98833 19.195L10 19V17.3333ZM15 3.99999C13.7246 3.99992 12.4975 4.4872 11.5696 5.36213C10.6417 6.23706 10.0832 7.4335 10.0083 8.70666L10 8.99999V12.3333H20V8.99999C20.0001 7.72464 19.5128 6.49746 18.6379 5.56955C17.7629 4.64164 16.5665 4.08314 15.2933 4.00832L15 3.99999Z" fill="#DA7043"/>
</svg>
