<svg width="30" height="36" viewBox="0 0 30 36" fill="none" xmlns="http://www.w3.org/2000/svg">
<path d="M15 0.666687C16.0943 0.666687 17.178 0.882235 18.189 1.30102C19.2001 1.71981 20.1187 2.33364 20.8926 3.10746C21.6664 3.88129 22.2802 4.79994 22.699 5.81099C23.1178 6.82204 23.3333 7.90567 23.3333 9.00002V12.3334H28.3333C28.7754 12.3334 29.1993 12.5089 29.5118 12.8215C29.8244 13.1341 30 13.558 30 14V34C30 34.442 29.8244 34.866 29.5118 35.1785C29.1993 35.4911 28.7754 35.6667 28.3333 35.6667H1.66667C1.22464 35.6667 0.800716 35.4911 0.488155 35.1785C0.175595 34.866 0 34.442 0 34V14C0 13.558 0.175595 13.1341 0.488155 12.8215C0.800716 12.5089 1.22464 12.3334 1.66667 12.3334H6.66667V9.00002C6.66667 6.78988 7.54464 4.67027 9.10744 3.10746C10.6702 1.54466 12.7899 0.666687 15 0.666687ZM23.3333 17.3334H20V19C20.0005 19.4248 20.1631 19.8334 20.4547 20.1423C20.7464 20.4512 21.1449 20.6371 21.569 20.662C21.9931 20.6869 22.4106 20.5489 22.7364 20.2762C23.0621 20.0036 23.2715 19.6168 23.3217 19.195L23.3333 19V17.3334ZM10 17.3334H6.66667V19C6.66714 19.4248 6.8298 19.8334 7.12141 20.1423C7.41303 20.4512 7.81159 20.6371 8.23566 20.662C8.65973 20.6869 9.0773 20.5489 9.40305 20.2762C9.72881 20.0036 9.93816 19.6168 9.98833 19.195L10 19V17.3334ZM15 4.00002C13.7246 3.99995 12.4975 4.48723 11.5696 5.36216C10.6417 6.23709 10.0832 7.43353 10.0083 8.70669L10 9.00002V12.3334H20V9.00002C20.0001 7.72467 19.5128 6.4975 18.6379 5.56959C17.7629 4.64168 16.5665 4.08317 15.2933 4.00835L15 4.00002Z" fill="white"/>
</svg>
