<svg width="1500" height="456" viewBox="0 0 1500 456" fill="none" xmlns="http://www.w3.org/2000/svg">
<path d="M-415.794 155.633C-415.794 143.193 -406.928 132.52 -394.699 130.239C-363.324 124.387 -368.367 78 -400.266 79.0258L-991 98.0218L-57.5446 12.1545C20.3794 4.98634 97.7606 30.6545 155.952 82.9736L182.971 107.266C274.408 189.475 413.136 189.454 504.547 107.216C586.041 33.9003 706.805 24.9838 798.183 85.5354L909.735 159.456C1026.25 236.668 1181.48 218.562 1277.1 116.604C1377.59 9.45046 1542.83 -4.36842 1659.73 84.6058L1703.96 118.274C1808.37 197.742 1952.31 200.141 2059.3 124.198L2233 0.911392L2073.52 97.7297C2016.06 132.612 1990.2 202.47 2011.08 266.361C2041.65 359.895 1971.95 456 1873.55 456H-240.002C-337.089 456 -415.794 377.295 -415.794 280.207V155.633Z" fill="white"/>
</svg>
