<svg width="19" height="19" viewBox="0 0 19 19" fill="none" xmlns="http://www.w3.org/2000/svg">
<path d="M13.0437 18.875V11.6187H15.474L15.8375 8.79792H13.0437V6.99792C13.0437 6.18125 13.2708 5.62396 14.4417 5.62396H15.9354V3.10104C15.2123 3.02432 14.4855 2.98711 13.7583 2.98958C11.6052 2.98958 10.1312 4.30417 10.1312 6.71875V8.79792H7.69583V11.6187H10.1312V18.875H1.16667C0.890399 18.875 0.625447 18.7653 0.430097 18.5699C0.234747 18.3746 0.125 18.1096 0.125 17.8333V1.16667C0.125 0.890399 0.234747 0.625447 0.430097 0.430097C0.625447 0.234747 0.890399 0.125 1.16667 0.125H17.8333C18.1096 0.125 18.3746 0.234747 18.5699 0.430097C18.7653 0.625447 18.875 0.890399 18.875 1.16667V17.8333C18.875 18.1096 18.7653 18.3746 18.5699 18.5699C18.3746 18.7653 18.1096 18.875 17.8333 18.875H13.0437Z" fill="white"/>
</svg>
