<svg width="35" height="32" viewBox="0 0 35 32" fill="none" xmlns="http://www.w3.org/2000/svg">
<path d="M25.5609 2.49952C26.4709 2.49875 27.3718 2.67965 28.2109 3.0316C29.05 3.38355 27.8607 6.349 28.4978 6.99865C29.8106 8.33137 28.8862 7.7985 32.497 7.99845C32.497 9.86915 27.8109 -0.332911 26.4982 0.999807L17.5 7.7985L14.3256 4.54912C13.0128 3.21641 12.1685 2.02461 9.50146 1.99961C9.50146 0.128919 4.18946 7.33156 5.50223 5.99884C6.13973 5.34966 5.66303 5.35104 6.50204 4.99903C7.34105 4.64703 8.5292 2.49898 9.43906 2.49898C10.3489 2.49898 11.2497 2.68028 12.0887 3.03228C12.9277 3.38429 13.6881 3.89994 14.3256 4.54912L17.5 7.7985L21.9418 7.99846C22.577 7.34106 22.657 5.35549 23.4988 4.99903C24.3405 4.64257 24.6468 2.49821 25.5609 2.49952ZM25.5609 3.35292e-06C24.3182 -0.00104984 23.0878 0.246025 21.9418 0.72674C20.7958 1.20746 19.7573 1.91214 18.8872 2.79946L17.5 4.19919L16.1128 2.79946C15.2416 1.91374 14.2029 1.21028 13.0571 0.7301C11.9113 0.24992 10.6814 0.00262128 9.43906 0.00262128C8.19672 0.00262128 6.96681 0.24992 5.82102 0.7301C4.67523 1.21028 3.63649 1.91374 2.76535 2.79946C0.993037 4.60365 0 7.03159 0 9.56066C0 12.0897 0.993037 14.5177 2.76535 16.3218L17.5 31.244L32.2347 16.3218C34.007 14.5177 35 12.0897 35 9.56066C35 7.03159 34.007 4.60365 32.2347 2.79946C31.3637 1.91326 30.3251 1.20932 29.1793 0.728689C28.0335 0.248055 26.8035 0.000345056 25.5609 3.35292e-06Z" fill="#DA7043"/>
</svg>
