<svg width="27" height="20" viewBox="0 0 27 20" fill="none" xmlns="http://www.w3.org/2000/svg">
<path d="M15.0538 0.194802C14.8765 0.0635528 14.6436 -0.00616793 14.4044 0.000428867C14.1652 0.00702567 13.9385 0.0894208 13.7725 0.230138C13.6065 0.370854 13.5142 0.558824 13.5151 0.754175C13.5161 0.949527 13.6102 1.13689 13.7776 1.27653L23.9316 9.2493H0.920306C0.676226 9.2493 0.442142 9.32844 0.269551 9.46932C0.0969604 9.6102 0 9.80127 0 10.0005C0 10.1997 0.0969604 10.3908 0.269551 10.5317C0.442142 10.6726 0.676226 10.7517 0.920306 10.7517H23.9304L13.7788 18.7235C13.6115 18.8631 13.5173 19.0505 13.5164 19.2458C13.5154 19.4412 13.6077 19.6291 13.7738 19.7699C13.9398 19.9106 14.1664 19.993 14.4056 19.9996C14.6448 20.0062 14.8777 19.9364 15.055 19.8052L26.6238 10.7217C26.7428 10.6282 26.8374 10.5161 26.9021 10.3921C26.9667 10.2681 27 10.1348 27 10C27 9.86524 26.9667 9.73187 26.9021 9.60787C26.8374 9.48387 26.7428 9.37179 26.6238 9.27834L15.055 0.193801L15.0538 0.194802Z" fill="white"/>
</svg>
