<svg width="16" height="16" viewBox="0 0 16 16" fill="none" xmlns="http://www.w3.org/2000/svg">
<path d="M11.3332 1.33321C12.2165 1.33585 13.0629 1.68791 13.6875 2.31251C14.3121 2.9371 14.6641 3.78348 14.6668 4.66679V11.3332C14.6641 12.2165 14.3121 13.0629 13.6875 13.6875C13.0629 14.3121 12.2165 14.6641 11.3332 14.6668H4.66679C3.78348 14.6641 2.9371 14.3121 2.31251 13.6875C1.68791 13.0629 1.33585 12.2165 1.33321 11.3332V4.66679C1.33585 3.78348 1.68791 2.9371 2.31251 2.31251C2.9371 1.68791 3.78348 1.33585 4.66679 1.33321H11.3332ZM11.3332 0H4.66679C2.1 0 0 2.1 0 4.66679V11.3332C0 13.9 2.1 16 4.66679 16H11.3332C13.9 16 16 13.9 16 11.3332V4.66679C16 2.1 13.9 0 11.3332 0Z" fill="#E1BCAB"/>
<path d="M12.3333 4.66678C12.1355 4.66678 11.9421 4.60813 11.7777 4.49825C11.6132 4.38837 11.4851 4.23219 11.4094 4.04946C11.3337 3.86674 11.3139 3.66567 11.3525 3.47169C11.3911 3.27771 11.4863 3.09952 11.6261 2.95967C11.766 2.81982 11.9442 2.72458 12.1382 2.68599C12.3321 2.64741 12.5332 2.66721 12.7159 2.7429C12.8987 2.81859 13.0548 2.94676 13.1647 3.11121C13.2746 3.27566 13.3333 3.469 13.3333 3.66678C13.3335 3.79818 13.3079 3.92834 13.2577 4.0498C13.2076 4.17125 13.1339 4.2816 13.041 4.37452C12.9481 4.46743 12.8377 4.54108 12.7163 4.59123C12.5948 4.64139 12.4647 4.66706 12.3333 4.66678Z" fill="#E1BCAB"/>
<path d="M8 5.33321C8.52744 5.33321 9.04304 5.48962 9.48159 5.78265C9.92014 6.07568 10.2619 6.49217 10.4638 6.97947C10.6656 7.46676 10.7184 8.00296 10.6155 8.52026C10.5126 9.03757 10.2587 9.51274 9.8857 9.8857C9.51275 10.2587 9.03757 10.5126 8.52027 10.6155C8.00296 10.7184 7.46676 10.6656 6.97947 10.4638C6.49218 10.2619 6.07568 9.92014 5.78265 9.48159C5.48962 9.04304 5.33322 8.52744 5.33322 8C5.33397 7.29296 5.61518 6.61509 6.11513 6.11513C6.61509 5.61518 7.29296 5.33397 8 5.33321ZM8 4C7.20888 4 6.43552 4.2346 5.77772 4.67412C5.11992 5.11365 4.60723 5.73836 4.30448 6.46927C4.00173 7.20017 3.92252 8.00444 4.07686 8.78036C4.2312 9.55629 4.61216 10.269 5.17157 10.8284C5.73098 11.3878 6.44372 11.7688 7.21964 11.9231C7.99556 12.0775 8.79983 11.9983 9.53074 11.6955C10.2616 11.3928 10.8864 10.8801 11.3259 10.2223C11.7654 9.56448 12 8.79112 12 8C12 6.93913 11.5786 5.92172 10.8284 5.17157C10.0783 4.42143 9.06087 4 8 4Z" fill="#E1BCAB"/>
</svg>
