<svg width="21" height="21" viewBox="0 0 21 21" fill="none" xmlns="http://www.w3.org/2000/svg">
<path d="M10.5 7.37516C9.67121 7.37516 8.87635 7.7044 8.2903 8.29045C7.70425 8.8765 7.37501 9.67136 7.37501 10.5002C7.37501 11.329 7.70425 12.1238 8.2903 12.7099C8.87635 13.2959 9.67121 13.6252 10.5 13.6252C11.3288 13.6252 12.1237 13.2959 12.7097 12.7099C13.2958 12.1238 13.625 11.329 13.625 10.5002C13.625 9.67136 13.2958 8.8765 12.7097 8.29045C12.1237 7.7044 11.3288 7.37516 10.5 7.37516ZM10.5 5.29183C11.8813 5.29183 13.2061 5.84056 14.1829 6.81731C15.1596 7.79407 15.7083 9.11883 15.7083 10.5002C15.7083 11.8815 15.1596 13.2063 14.1829 14.183C13.2061 15.1598 11.8813 15.7085 10.5 15.7085C9.11867 15.7085 7.79391 15.1598 6.81716 14.183C5.84041 13.2063 5.29168 11.8815 5.29168 10.5002C5.29168 9.11883 5.84041 7.79407 6.81716 6.81731C7.79391 5.84056 9.11867 5.29183 10.5 5.29183ZM17.2708 5.03141C17.2708 5.37675 17.1337 5.70794 16.8895 5.95212C16.6453 6.19631 16.3141 6.3335 15.9688 6.3335C15.6234 6.3335 15.2922 6.19631 15.048 5.95212C14.8039 5.70794 14.6667 5.37675 14.6667 5.03141C14.6667 4.68608 14.8039 4.35489 15.048 4.1107C15.2922 3.86651 15.6234 3.72933 15.9688 3.72933C16.3141 3.72933 16.6453 3.86651 16.8895 4.1107C17.1337 4.35489 17.2708 4.68608 17.2708 5.03141ZM10.5 2.16683C7.92293 2.16683 7.50209 2.17412 6.30313 2.22725C5.48647 2.26579 4.93855 2.37516 4.43022 2.57308C3.97813 2.74808 3.65209 2.95745 3.30522 3.30537C2.97918 3.62037 2.7285 4.00494 2.57189 4.43037C2.37397 4.94079 2.26459 5.48766 2.22709 6.30329C2.17293 7.45329 2.16668 7.85537 2.16668 10.5002C2.16668 13.0772 2.17397 13.4981 2.22709 14.697C2.26564 15.5127 2.37501 16.0616 2.57189 16.5689C2.74897 17.022 2.9573 17.3481 3.30314 17.6939C3.65418 18.0439 3.98022 18.2533 4.42813 18.4262C4.94272 18.6252 5.49064 18.7356 6.30313 18.7731C7.45314 18.8272 7.85522 18.8335 10.5 18.8335C13.0771 18.8335 13.4979 18.8262 14.6969 18.7731C15.5115 18.7345 16.0604 18.6252 16.5688 18.4283C17.0198 18.2522 17.3479 18.0429 17.6938 17.697C18.0448 17.346 18.2542 17.02 18.4271 16.572C18.625 16.0585 18.7354 15.5095 18.7729 14.697C18.8271 13.547 18.8333 13.145 18.8333 10.5002C18.8333 7.92308 18.826 7.50225 18.7729 6.30329C18.7344 5.4887 18.625 4.9387 18.4271 4.43037C18.2701 4.00537 18.0199 3.62095 17.6948 3.30537C17.3799 2.97917 16.9953 2.72846 16.5698 2.57204C16.0594 2.37412 15.5115 2.26475 14.6969 2.22725C13.5469 2.17308 13.1448 2.16683 10.5 2.16683ZM10.5 0.0834961C13.3302 0.0834961 13.6833 0.0939127 14.7938 0.145996C15.9031 0.198079 16.6583 0.372038 17.3229 0.630371C18.0104 0.894955 18.5896 1.25329 19.1688 1.83141C19.6984 2.35214 20.1083 2.98203 20.3698 3.67725C20.6271 4.34079 20.8021 5.09704 20.8542 6.20641C20.9031 7.31683 20.9167 7.66995 20.9167 10.5002C20.9167 13.3304 20.9063 13.6835 20.8542 14.7939C20.8021 15.9033 20.6271 16.6585 20.3698 17.3231C20.109 18.0187 19.6991 18.6487 19.1688 19.1689C18.6479 19.6984 18.018 20.1082 17.3229 20.37C16.6594 20.6272 15.9031 20.8022 14.7938 20.8543C13.6833 20.9033 13.3302 20.9168 10.5 20.9168C7.6698 20.9168 7.31668 20.9064 6.20626 20.8543C5.09688 20.8022 4.34168 20.6272 3.67709 20.37C2.9816 20.109 2.3516 19.6991 1.83126 19.1689C1.30148 18.6483 0.891605 18.0184 0.630219 17.3231C0.371885 16.6595 0.197927 15.9033 0.145843 14.7939C0.0968851 13.6835 0.0833435 13.3304 0.0833435 10.5002C0.0833435 7.66995 0.0937601 7.31683 0.145843 6.20641C0.197927 5.096 0.371885 4.34183 0.630219 3.67725C0.890881 2.9816 1.30085 2.35154 1.83126 1.83141C2.35175 1.30145 2.98171 0.891547 3.67709 0.630371C4.34168 0.372038 5.09584 0.198079 6.20626 0.145996C7.31668 0.0970377 7.6698 0.0834961 10.5 0.0834961Z" fill="white"/>
</svg>
