<svg width="117" height="32" viewBox="0 0 117 32" fill="none" xmlns="http://www.w3.org/2000/svg">
<path d="M7.875 17.48C7.875 18.2967 8.12 19.0783 8.61 19.825C9.1 20.5717 9.74167 21.1783 10.535 21.645C11.3517 22.1117 12.2383 22.345 13.195 22.345C14.245 22.345 15.1783 22.1117 15.995 21.645C16.8117 21.1783 17.4533 20.5717 17.92 19.825C18.41 19.0783 18.655 18.2967 18.655 17.48V1.24H23.66V17.585C23.66 19.475 23.1933 21.155 22.26 22.625C21.3267 24.0717 20.0667 25.215 18.48 26.055C16.8933 26.8717 15.1317 27.28 13.195 27.28C11.2817 27.28 9.53167 26.8717 7.945 26.055C6.38167 25.215 5.13333 24.0717 4.2 22.625C3.26667 21.155 2.8 19.475 2.8 17.585V1.24H7.875V17.48ZM51.4451 28.05L31.9151 10.41L33.4201 11.25L33.5251 27H28.3801V0.224998H28.5901L47.7001 17.795L46.5801 17.305L46.4751 1.24H51.5851V28.05H51.4451ZM56.8189 1.24H61.8939V27H56.8189V1.24ZM86.4626 24.865C86.1826 25.0983 85.6576 25.4133 84.8876 25.81C84.1409 26.2067 83.2192 26.5567 82.1226 26.86C81.0259 27.1633 79.8126 27.3033 78.4826 27.28C76.4526 27.2333 74.6326 26.8717 73.0226 26.195C71.4359 25.495 70.0826 24.55 68.9626 23.36C67.8659 22.17 67.0259 20.805 66.4426 19.265C65.8592 17.725 65.5676 16.08 65.5676 14.33C65.5676 12.37 65.8592 10.5733 66.4426 8.94C67.0492 7.30667 67.9009 5.895 68.9976 4.705C70.1176 3.515 71.4476 2.59333 72.9876 1.94C74.5276 1.28667 76.2309 0.959999 78.0976 0.959999C79.8242 0.959999 81.3526 1.19333 82.6826 1.66C84.0126 2.12666 85.0976 2.62833 85.9376 3.165L83.9426 7.96C83.3592 7.51667 82.5776 7.06167 81.5976 6.595C80.6409 6.105 79.5326 5.86 78.2726 5.86C77.2926 5.86 76.3476 6.07 75.4376 6.49C74.5509 6.88667 73.7576 7.45833 73.0576 8.205C72.3809 8.95167 71.8442 9.82667 71.4476 10.83C71.0509 11.81 70.8526 12.8833 70.8526 14.05C70.8526 15.2867 71.0276 16.4183 71.3776 17.445C71.7509 18.4717 72.2759 19.3583 72.9526 20.105C73.6292 20.8283 74.4342 21.3883 75.3676 21.785C76.3242 22.1817 77.3976 22.38 78.5876 22.38C79.9642 22.38 81.1426 22.1583 82.1226 21.715C83.1026 21.2717 83.8492 20.805 84.3626 20.315L86.4626 24.865Z" fill="black"/>
</svg>
