<svg width="72" height="72" viewBox="0 0 72 72" fill="none" xmlns="http://www.w3.org/2000/svg">
<path d="M30 49.5L39 52.5C39 52.5 61.5 48 64.5 48C67.5 48 67.5 51 64.5 54C61.5 57 51 66 42 66C33 66 27 61.5 21 61.5C15 61.5 6 61.5 6 61.5" stroke="black" stroke-width="3" stroke-linecap="round" stroke-linejoin="round"/>
<path d="M6 43.5C9 40.5 15 36 21 36C27 36 41.25 42 43.5 45C45.75 48 39 52.5 39 52.5" stroke="black" stroke-width="3" stroke-linecap="round" stroke-linejoin="round"/>
<path d="M24 27V15C24 13.3431 25.3431 12 27 12H63C64.6569 12 66 13.3431 66 15V39" stroke="black" stroke-width="3" stroke-linecap="round" stroke-linejoin="round"/>
<path d="M52.5 12H37.5V25.5H52.5V12Z" stroke="black" stroke-width="3" stroke-linecap="round" stroke-linejoin="round"/>
</svg>
