<svg width="72" height="73" viewBox="0 0 72 73" fill="none" xmlns="http://www.w3.org/2000/svg">
<path d="M20.9999 57.4478C24.3136 57.4478 26.9999 54.7404 26.9999 51.4007C26.9999 48.0609 24.3136 45.3535 20.9999 45.3535C17.6862 45.3535 14.9999 48.0609 14.9999 51.4007C14.9999 54.7404 17.6862 57.4478 20.9999 57.4478Z" stroke="black" stroke-width="3" stroke-linecap="round" stroke-linejoin="round"/>
<path d="M50.9999 57.4478C54.3136 57.4478 56.9999 54.7404 56.9999 51.4007C56.9999 48.0609 54.3136 45.3535 50.9999 45.3535C47.6862 45.3535 44.9999 48.0609 44.9999 51.4007C44.9999 54.7404 47.6862 57.4478 50.9999 57.4478Z" stroke="black" stroke-width="3" stroke-linecap="round" stroke-linejoin="round"/>
<path d="M14.9999 51.4006H8.99994V39.3063M5.99994 15.1177H38.9999V51.4006M26.9999 51.4006H44.9999M56.9999 51.4006H62.9999V33.2591M62.9999 33.2591H38.9999M62.9999 33.2591L53.0322 19.3117L38.9999 18.1413" stroke="black" stroke-width="3" stroke-linecap="round" stroke-linejoin="round"/>
<path d="M8.99994 27.2124H20.9999" stroke="black" stroke-width="3" stroke-linecap="round" stroke-linejoin="round"/>
</svg>
