<?xml version="1.0" standalone="no"?>
<!DOCTYPE svg PUBLIC "-//W3C//DTD SVG 20010904//EN"
 "http://www.w3.org/TR/2001/REC-SVG-20010904/DTD/svg10.dtd">
<svg version="1.0" xmlns="http://www.w3.org/2000/svg"
 width="32.000000pt" height="32.000000pt" viewBox="0 0 32.000000 32.000000"
 preserveAspectRatio="xMidYMid meet">

<g transform="translate(0.000000,32.000000) scale(0.100000,-0.100000)"
fill="#000000" stroke="none">
<path d="M93 308 c-12 -6 -34 -28 -48 -48 -26 -37 -26 -39 -10 -64 10 -14 21
-26 26 -26 14 0 10 -30 -6 -46 -16 -17 -20 -61 -7 -82 5 -7 33 -15 63 -17 l54
-4 -47 8 c-57 11 -68 17 -67 39 0 9 3 12 5 6 3 -7 14 -9 26 -7 11 4 24 0 29
-8 5 -8 9 -9 9 -3 0 17 30 12 31 -5 0 -12 3 -11 9 4 5 11 9 14 9 7 1 -7 6 -10
11 -7 6 3 10 0 10 -7 0 -9 3 -9 10 2 7 11 10 11 10 2 0 -7 4 -11 9 -8 5 4 12
0 15 -6 5 -11 7 -11 12 0 3 6 10 10 15 6 15 -9 10 -32 -9 -37 -13 -4 -11 -5 6
-6 18 -1 22 4 22 29 0 20 -5 30 -15 30 -8 0 -15 9 -15 19 0 10 7 21 15 25 10
4 15 19 15 49 0 24 5 48 12 55 8 8 5 21 -16 50 -35 51 -96 81 -96 47 0 -8 -9
-15 -20 -15 -11 0 -20 7 -20 15 0 17 -16 18 -47 3z m69 -28 c9 0 21 7 28 15 9
11 17 12 31 4 14 -7 19 -21 19 -52 l0 -43 -77 10 c-76 11 -78 12 -81 41 -5 39
24 62 48 40 9 -8 24 -15 32 -15z m-104 -51 c-24 -16 -29 -9 -11 18 15 23 18
24 21 9 2 -10 -2 -22 -10 -27z m220 -16 c-18 -23 -28 -14 -28 25 l0 37 20 -25
c13 -18 16 -28 8 -37z m-168 -15 c0 -9 3 -8 10 2 9 13 10 13 10 0 0 -13 1 -13
10 0 8 12 10 12 10 -5 0 -11 4 -15 8 -10 11 15 32 17 32 3 0 -9 4 -8 10 2 7
11 10 11 10 2 0 -7 4 -11 9 -8 5 4 12 0 14 -6 4 -10 7 -10 15 0 7 11 11 10 16
-4 3 -9 5 -19 2 -21 -2 -2 -37 0 -77 6 -76 10 -111 7 -43 -4 98 -16 94 -14 94
-52 l0 -35 -57 7 c-104 12 -105 13 -101 56 3 31 0 40 -14 45 -29 9 -21 30 12
32 19 1 30 -2 30 -10z m160 -79 c0 -5 -4 -9 -10 -9 -5 0 -10 7 -10 16 0 8 5
12 10 9 6 -3 10 -10 10 -16z m-200 -15 c0 -8 -5 -12 -10 -9 -6 4 -8 11 -5 16
9 14 15 11 15 -7z"/>
<path d="M183 13 c9 -2 25 -2 35 0 9 3 1 5 -18 5 -19 0 -27 -2 -17 -5z"/>
</g>
</svg>
