<svg width="73" height="72" viewBox="0 0 73 72" fill="none" xmlns="http://www.w3.org/2000/svg">
<path d="M36.7521 6C20.2101 6 6.75208 19.458 6.75208 36V48.429C6.75208 51.501 9.44307 54 12.7521 54H15.7521C16.5477 54 17.3108 53.6839 17.8734 53.1213C18.436 52.5587 18.7521 51.7956 18.7521 51V35.571C18.7521 34.7753 18.436 34.0123 17.8734 33.4497C17.3108 32.8871 16.5477 32.571 15.7521 32.571H13.0281C14.6961 20.961 24.6861 12 36.7521 12C48.8181 12 58.8081 20.961 60.4761 32.571H57.7521C56.9564 32.571 56.1934 32.8871 55.6307 33.4497C55.0681 34.0123 54.7521 34.7753 54.7521 35.571V54C54.7521 57.309 52.0611 60 48.7521 60H42.7521V57H30.7521V66H48.7521C55.3701 66 60.7521 60.618 60.7521 54C64.0611 54 66.7521 51.501 66.7521 48.429V36C66.7521 19.458 53.2941 6 36.7521 6Z" fill="black"/>
</svg>
