<svg width="22" height="25" viewBox="0 0 22 25" fill="none" xmlns="http://www.w3.org/2000/svg">
<path d="M18.8679 5.34661C18.7 5.2594 18.5367 5.1638 18.3783 5.06016C17.918 4.75417 17.4958 4.39361 17.1211 3.98626C16.1835 2.90767 15.8333 1.81345 15.7043 1.04734H15.7095C15.6018 0.411438 15.6463 0 15.653 0H11.3825V16.6023C11.3825 16.8252 11.3825 17.0455 11.3732 17.2632C11.3732 17.2903 11.3706 17.3153 11.369 17.3444C11.369 17.3564 11.369 17.3689 11.3664 17.3814C11.3664 17.3845 11.3664 17.3877 11.3664 17.3908C11.3214 17.9865 11.1315 18.5619 10.8133 19.0665C10.4952 19.5711 10.0586 19.9893 9.54197 20.2844C9.00351 20.5924 8.3945 20.7539 7.77501 20.7531C5.7853 20.7531 4.1727 19.122 4.1727 17.1075C4.1727 15.093 5.7853 13.4618 7.77501 13.4618C8.15165 13.4615 8.52598 13.5211 8.88409 13.6384L8.88927 9.26672C7.80213 9.12554 6.69769 9.21241 5.64562 9.52184C4.59355 9.83127 3.61668 10.3566 2.77664 11.0646C2.04057 11.7075 1.42175 12.4747 0.948033 13.3316C0.767762 13.6441 0.0876032 14.8998 0.00523814 16.9377C-0.0465638 18.0944 0.298955 19.2928 0.463685 19.7881V19.7985C0.567289 20.0901 0.968754 21.0854 1.62301 21.9244C2.15058 22.5974 2.77389 23.1887 3.47286 23.679V23.6686L3.48322 23.679C5.55063 25.0915 7.84287 24.9988 7.84287 24.9988C8.23967 24.9826 9.56891 24.9988 11.0784 24.2795C12.7527 23.4822 13.7058 22.2942 13.7058 22.2942C14.3147 21.5844 14.7989 20.7755 15.1376 19.9021C15.5241 18.8808 15.653 17.6559 15.653 17.1663V8.35844C15.7048 8.38969 16.3948 8.84852 16.3948 8.84852C16.3948 8.84852 17.3889 9.48911 18.9399 9.90628C20.0526 10.2031 21.5517 10.2656 21.5517 10.2656V6.00335C21.0265 6.06064 19.9599 5.89398 18.8679 5.34661Z" fill="white"/>
</svg>
