<svg width="21" height="21" viewBox="0 0 21 21" fill="none" xmlns="http://www.w3.org/2000/svg">
<path d="M0.0874936 20.9168L1.49583 15.7418C0.567846 14.1511 0.0803019 12.3418 0.083327 10.5002C0.083327 4.74704 4.74687 0.0834961 10.5 0.0834961C16.2531 0.0834961 20.9167 4.74704 20.9167 10.5002C20.9167 16.2533 16.2531 20.9168 10.5 20.9168C8.65914 20.9198 6.85068 20.4326 5.26041 19.5054L0.0874936 20.9168ZM6.74062 5.61266C6.6061 5.62102 6.47465 5.65645 6.35416 5.71683C6.24116 5.78082 6.13801 5.86081 6.04791 5.95433C5.92291 6.07204 5.85208 6.17412 5.77604 6.27308C5.39105 6.77412 5.18396 7.38914 5.18749 8.021C5.18958 8.53141 5.32291 9.02829 5.53124 9.49287C5.95728 10.4325 6.65833 11.4272 7.58437 12.3491C7.80729 12.571 8.02499 12.7939 8.25937 13.0012C9.40873 14.0131 10.7784 14.7429 12.2594 15.1325L12.8521 15.2231C13.0448 15.2335 13.2375 15.2189 13.4312 15.2095C13.7346 15.1939 14.0308 15.1117 14.299 14.9689C14.4719 14.8772 14.5531 14.8314 14.6979 14.7397C14.6979 14.7397 14.7427 14.7106 14.8281 14.646C14.9687 14.5418 15.0552 14.4679 15.1719 14.346C15.2583 14.2564 15.3333 14.1512 15.3906 14.0314C15.4719 13.8616 15.5531 13.5377 15.5865 13.2679C15.6115 13.0616 15.6042 12.9491 15.601 12.8793C15.5969 12.7679 15.5042 12.6522 15.4031 12.6033L14.7969 12.3314C14.7969 12.3314 13.8906 11.9366 13.3375 11.6845C13.2792 11.6591 13.2167 11.6446 13.1531 11.6418C13.0818 11.6345 13.0098 11.6425 12.9419 11.6653C12.874 11.6882 12.8118 11.7253 12.7594 11.7741V11.772C12.7542 11.772 12.6844 11.8314 11.9312 12.7439C11.888 12.802 11.8285 12.8459 11.7602 12.87C11.6919 12.8941 11.618 12.8974 11.5479 12.8793C11.48 12.8612 11.4135 12.8382 11.349 12.8106C11.2198 12.7564 11.175 12.7356 11.0865 12.697L11.0812 12.695C10.4853 12.4348 9.93356 12.0833 9.44583 11.6533C9.31458 11.5387 9.1927 11.4137 9.0677 11.2929C8.65789 10.9004 8.30074 10.4564 8.0052 9.97204L7.94374 9.87308C7.8996 9.80658 7.86391 9.73485 7.83749 9.65954C7.79791 9.50641 7.90103 9.3835 7.90103 9.3835C7.90103 9.3835 8.15416 9.10641 8.27187 8.95641C8.36988 8.83175 8.46132 8.70206 8.54583 8.56787C8.66874 8.36996 8.70728 8.16683 8.6427 8.00954C8.35104 7.29704 8.04895 6.58766 7.73853 5.8835C7.67708 5.74391 7.49479 5.64391 7.32916 5.62412C7.27291 5.61787 7.21666 5.61162 7.16041 5.60745C7.02052 5.6005 6.88034 5.60294 6.74062 5.61266Z" fill="white"/>
</svg>
