<svg width="80" height="87" viewBox="0 0 80 87" fill="none" xmlns="http://www.w3.org/2000/svg">
<g clip-path="url(#clip0_3_130)">
<path d="M5.47957 18.3288L9.04204 21.7975C10.5861 23.3016 12.5344 23.072 14.2682 21.2907C15.9524 19.5612 15.9686 17.7725 14.4246 16.2683L10.8621 12.7997C10.337 12.2886 10.1763 11.6503 10.116 10.9904L10.0545 10.93L8.67112 12.3511L8.73258 12.4115C9.39354 12.4536 10.0362 12.597 10.5613 13.108L14.1237 16.5767C15.4004 17.8199 15.3788 19.2227 14.2758 20.3548C13.1727 21.487 11.7818 21.557 10.4944 20.3041L6.93194 16.8355C6.40684 16.3244 6.07367 15.7594 5.98526 15.2117L5.9335 15.1621L3.77812 17.3757L3.82988 17.4253C4.37977 17.4997 4.95339 17.8167 5.47849 18.3278L5.47957 18.3288Z" fill="white"/>
<path d="M20.509 15.5384L20.5467 15.616L22.3312 14.7502L22.2935 14.6726C21.6864 14.4084 21.1311 14.0547 20.812 13.3949L17.9212 7.4344L27.4646 12.2616L27.9434 12.0298L24.3755 4.67306C24.0553 4.01318 24.1211 3.35869 24.2903 2.71823L24.2526 2.64059L22.4681 3.50641L22.5059 3.58405C23.1129 3.84821 23.6682 4.20187 23.9874 4.86175L26.201 9.42589L18.4593 5.45046L16.1573 6.56643L16.1885 6.63112C16.7956 6.89529 17.3509 7.24895 17.67 7.90882L20.4227 13.5846C20.743 14.2445 20.6772 14.899 20.5079 15.5394L20.509 15.5384Z" fill="white"/>
<path d="M32.3458 2.5414L33.3798 8.74984C33.5006 9.47226 33.4337 10.1246 33.1814 10.6184L33.1933 10.6896L36.2404 10.1817L36.2285 10.1106C35.8296 9.72564 35.5557 9.13046 35.4349 8.40697L34.4009 2.19852C34.2801 1.47503 34.347 0.823781 34.5993 0.329952L34.5874 0.258789L31.5404 0.766635L31.5522 0.837798C31.9512 1.22273 32.225 1.81791 32.3458 2.5414Z" fill="white"/>
<path d="M44.5535 10.1645C44.8295 12.0093 46.2862 13.2191 48.24 13.4638L48.6529 13.5156L48.8815 11.6902C47.1132 11.4691 45.6522 11.2287 44.9169 10.268C45.1411 10.3251 45.3816 10.3693 45.6242 10.3995C48.5904 10.7704 50.7738 8.94283 51.162 5.83429C51.5501 2.72576 49.8843 0.418348 46.9191 0.0474371C43.9529 -0.323474 41.7695 1.50412 41.3814 4.61266C41.0428 7.32225 42.2709 9.43019 44.5546 10.1645H44.5535ZM43.5906 4.88869C43.9454 2.05079 45.1746 0.205937 46.8717 0.418348C48.5828 0.631837 49.3063 2.72145 48.9516 5.55827C48.5969 8.39509 47.3817 10.2421 45.6706 10.0286C43.9734 9.81619 43.2359 7.72551 43.5906 4.88869Z" fill="white"/>
<path d="M63.2349 13.1264L65.5358 8.71965C65.8755 8.06948 66.4405 7.73307 67.0551 7.48616L67.095 7.4096L65.3374 6.49203L65.2975 6.56858C65.4474 7.21337 65.4927 7.87001 65.1541 8.52018L62.8532 12.9269C62.0284 14.5065 60.6784 14.8871 59.2778 14.1561C57.8772 13.425 57.4114 12.1118 58.2427 10.5192L60.5436 6.11142C60.8833 5.46232 61.3286 4.98143 61.8278 4.73883L61.8612 4.67522L59.1225 3.24548L59.0891 3.3091C59.1764 3.85684 59.0363 4.49731 58.6966 5.1464L56.3957 9.55312C55.3983 11.4637 56.1768 13.2644 58.3796 14.4149C60.5199 15.5319 62.2375 15.0348 63.2349 13.1242V13.1264Z" fill="white"/>
<path d="M65.7687 19.0663L70.8375 24.4187L73.077 22.7927L72.9778 22.6881C71.52 23.2175 70.2671 23.2951 68.8945 21.8449L67.8077 20.6977L71.0941 17.5859L71.9729 18.5143C72.7535 19.3391 72.7104 20.151 72.2208 20.9705L72.32 21.0751L74.7719 18.7536L74.6727 18.6491C73.8274 19.0933 73.0144 19.0922 72.2338 18.2674L71.354 17.339L74.5886 14.2758L75.4577 15.1944C76.8314 16.6446 76.6847 17.8911 76.0766 19.3176L76.1758 19.4221L77.9214 17.2743L73.0705 12.1516L73.0187 12.2012C72.9228 12.7479 72.5821 13.3075 72.0494 13.811L67.4788 18.138C66.9462 18.6415 66.3693 18.951 65.8183 19.0178L65.7666 19.0674L65.7687 19.0663Z" fill="white"/>
<path d="M10.7413 65.2922C10.8966 65.1089 11.0055 64.9105 11.068 64.6959C11.1306 64.4813 11.1456 64.2571 11.1144 64.0231C11.1014 63.9304 11.081 63.8387 11.0562 63.7471C11.1661 63.8592 11.288 63.9487 11.4238 64.0134C11.6643 64.1288 11.922 64.1794 12.1969 64.1643C12.4719 64.1492 12.7296 64.0824 12.9722 63.9627C13.4315 63.7352 13.7269 63.4128 13.8585 62.9955C13.9889 62.5783 13.9383 62.134 13.7054 61.6628L12.5279 59.2854C12.5042 59.2379 12.4665 59.2056 12.4136 59.1883C12.3608 59.17 12.3112 59.1732 12.2638 59.1969L6.43163 62.0855C6.38419 62.1092 6.35184 62.147 6.33459 62.1998C6.31734 62.2526 6.3195 62.3022 6.34322 62.3497L7.55083 64.7886C7.67375 65.0355 7.82255 65.2523 7.9983 65.4367C8.17405 65.621 8.37137 65.7612 8.5924 65.8582C8.81236 65.9542 9.05065 65.9984 9.30619 65.9887C9.56173 65.979 9.83129 65.9046 10.1138 65.7644C10.379 65.6329 10.5893 65.4755 10.7445 65.2922H10.7413ZM12.2692 59.6552L13.328 61.7944C13.5231 62.189 13.5695 62.5448 13.4649 62.8597C13.3603 63.1756 13.1382 63.4182 12.7964 63.5875C12.3543 63.8064 11.9629 63.8527 11.6222 63.7287C11.2815 63.6037 11.0227 63.3697 10.8448 63.0247L9.786 60.8865L12.2692 59.6573V59.6552ZM8.71424 65.4647C8.3649 65.2857 8.08671 64.987 7.87969 64.5687L6.7896 62.368L9.42372 61.0644L10.5138 63.2651C10.6507 63.5422 10.7295 63.815 10.7489 64.0845C10.7683 64.3541 10.7133 64.601 10.5828 64.8274C10.4523 65.0528 10.2345 65.2426 9.92833 65.3935C9.469 65.621 9.06467 65.6447 8.71532 65.4658L8.71424 65.4647Z" fill="white"/>
<path d="M16.691 69.3021C16.6371 69.2989 16.5907 69.3139 16.5497 69.3474L14.1636 71.2903C13.9695 71.4478 13.7269 71.5351 13.4358 71.5524C13.1447 71.5696 12.8568 71.5211 12.5743 71.4079C12.2918 71.2947 12.0568 71.1232 11.8702 70.8946C11.5586 70.5119 11.4454 70.1539 11.5284 69.8186C11.6115 69.4832 11.8346 69.1684 12.1959 68.874L14.582 66.9311C14.6229 66.8976 14.6467 66.8545 14.6553 66.8017C14.6628 66.7488 14.6477 66.6992 14.6111 66.6529C14.5733 66.6076 14.5281 66.5828 14.4752 66.5796C14.4213 66.5763 14.375 66.5914 14.334 66.6248L11.9479 68.5678C11.6524 68.8083 11.4335 69.0649 11.2912 69.3388C11.1489 69.6115 11.0971 69.8994 11.136 70.2024C11.1748 70.5054 11.3236 70.8148 11.5802 71.1308C11.7376 71.3248 11.9274 71.4812 12.1484 71.603C12.3694 71.7238 12.6023 71.8057 12.8449 71.8499C13.0725 71.8909 13.2859 71.8877 13.4854 71.8435L13.1393 72.126C12.818 72.388 12.4848 72.5551 12.1376 72.6295C11.7915 72.7039 11.4594 72.6866 11.1403 72.5767C10.8222 72.4667 10.5429 72.264 10.3014 71.9685C10.1224 71.7497 9.99735 71.5232 9.92618 71.2893C9.85394 71.0553 9.80866 70.8741 9.78925 70.7458C9.78601 70.6898 9.76013 70.6477 9.71377 70.6229C9.66741 70.5981 9.61565 70.5906 9.55851 70.6035C9.50136 70.6165 9.46254 70.6477 9.44421 70.6973C9.42481 70.7469 9.41726 70.7998 9.42049 70.8558C9.43451 71.0391 9.4895 71.2472 9.58438 71.479C9.68035 71.7109 9.82267 71.9437 10.0135 72.1788C10.296 72.5249 10.6238 72.7718 10.9969 72.9174C11.3699 73.063 11.7635 73.0985 12.1775 73.0241C12.5916 72.9497 12.9948 72.7524 13.3873 72.4333L16.7977 69.6558C16.8387 69.6223 16.8624 69.5792 16.8711 69.5264C16.8786 69.4735 16.8635 69.4239 16.8268 69.3776C16.7891 69.3323 16.7438 69.3075 16.691 69.3042V69.3021Z" fill="white"/>
<path d="M26.4339 75.0771C26.4781 75.1051 26.5277 75.1138 26.5794 75.103C26.6323 75.0933 26.6743 75.0631 26.7045 75.0124C26.7325 74.9671 26.7401 74.9175 26.7271 74.8636C26.7142 74.8097 26.6851 74.7687 26.6409 74.7407L23.4774 72.788C23.4321 72.76 23.3836 72.7524 23.3286 72.7654C23.2736 72.7783 23.2337 72.8074 23.2056 72.8516L19.7866 78.3894C19.7585 78.4347 19.7521 78.4832 19.7639 78.5382C19.7769 78.5921 19.806 78.6331 19.8502 78.6611L23.0137 80.6138C23.059 80.6418 23.1075 80.6505 23.1593 80.6397C23.2121 80.63 23.2542 80.5998 23.2844 80.5491C23.3124 80.5038 23.3189 80.4553 23.307 80.4003C23.2951 80.3453 23.2649 80.3054 23.2207 80.2774L20.2416 78.4379L21.8007 75.9127L24.4025 77.5182C24.4467 77.5462 24.4963 77.5549 24.548 77.5441C24.6009 77.5344 24.6429 77.5042 24.6731 77.4535C24.7011 77.4082 24.7076 77.3597 24.6958 77.3047C24.6839 77.2497 24.6537 77.2098 24.6095 77.1818L22.0077 75.5763L23.4526 73.2355L26.4317 75.0749L26.4339 75.0771Z" fill="white"/>
<path d="M29.3753 75.5073C29.3268 75.4868 29.2761 75.4879 29.2254 75.5095C29.1747 75.531 29.1381 75.5655 29.1176 75.614L26.4802 81.9928C26.4597 82.0414 26.4587 82.091 26.4781 82.1416C26.4964 82.1923 26.5331 82.2279 26.5881 82.2505C26.6366 82.271 26.6873 82.27 26.7379 82.2484C26.7886 82.2268 26.8253 82.1923 26.8458 82.1438L29.4831 75.765C29.5036 75.7165 29.5036 75.6669 29.4853 75.6162C29.4669 75.5655 29.4303 75.5299 29.3753 75.5073Z" fill="white"/>
<path d="M35.5826 79.7965C35.5255 79.7836 35.4737 79.7922 35.4295 79.8224C35.3853 79.8526 35.3573 79.8935 35.3454 79.9453L35.1578 80.7647C35.1513 80.7389 35.1481 80.7141 35.1406 80.6871C35.0791 80.4704 34.9724 80.2569 34.8214 80.0477C34.6705 79.8375 34.4818 79.6531 34.2553 79.4924C34.0289 79.3329 33.7712 79.2196 33.4833 79.1539C33.0412 79.0525 32.6207 79.0708 32.2218 79.2078C31.8228 79.3458 31.4767 79.5819 31.1845 79.9162C30.8923 80.2504 30.6907 80.658 30.5807 81.1389C30.4707 81.6198 30.474 82.0737 30.5915 82.5018C30.709 82.9298 30.9171 83.2954 31.2158 83.5962C31.5145 83.897 31.8843 84.0986 32.3264 84.2C32.5183 84.2442 32.7253 84.2625 32.9464 84.2561C33.1674 84.2496 33.3852 84.2086 33.6019 84.1331C33.8176 84.0577 34.0224 83.9412 34.2133 83.7827C34.3373 83.6803 34.4494 83.5541 34.5518 83.4107L34.3987 84.0781C34.2607 84.6798 33.9739 85.1294 33.5383 85.4238C33.1027 85.7181 32.5808 85.7958 31.9727 85.6567C31.8002 85.6168 31.6449 85.5693 31.5091 85.5154C31.3732 85.4604 31.2589 85.4054 31.1673 85.3505C31.0756 85.2955 31.0023 85.2523 30.9495 85.22C30.8212 85.1305 30.7381 85.0432 30.7004 84.9601C30.6616 84.8771 30.6109 84.8286 30.5473 84.8135C30.4955 84.8016 30.4524 84.8081 30.4158 84.834C30.3791 84.8599 30.3554 84.8976 30.3435 84.9494C30.3166 85.0647 30.3791 85.193 30.5279 85.3354C30.6778 85.4777 30.874 85.6125 31.1177 85.7386C31.3614 85.8658 31.6115 85.9586 31.8681 86.0168C32.3361 86.1246 32.7685 86.1225 33.1642 86.0103C33.561 85.8993 33.9006 85.6869 34.1852 85.3742C34.4699 85.0615 34.6683 84.6582 34.7815 84.1655L35.7303 80.0326C35.7422 79.982 35.7347 79.9324 35.7088 79.886C35.6818 79.8396 35.6398 79.8094 35.5826 79.7965ZM34.8861 82.1255C34.788 82.5546 34.6144 82.9115 34.3675 83.1951C34.1206 83.4787 33.8284 83.6781 33.4919 83.7935C33.1555 83.9089 32.8008 83.9229 32.4299 83.8377C32.0579 83.7525 31.7452 83.5811 31.4908 83.3234C31.2363 83.0657 31.0616 82.7541 30.9667 82.3886C30.8719 82.023 30.8719 81.6349 30.9667 81.2252C31.0627 80.809 31.232 80.4585 31.4767 80.1739C31.7204 79.8892 32.0126 79.6887 32.3533 79.5711C32.6941 79.4536 33.0499 79.4375 33.4219 79.5226C33.7938 79.6078 34.1065 79.7739 34.3599 80.0208C34.6133 80.2677 34.7901 80.5728 34.8883 80.9362C34.9874 81.2996 34.9874 81.6963 34.8883 82.1255H34.8861Z" fill="white"/>
<path d="M42.4704 80.1955C42.4111 80.1955 42.3636 80.2138 42.327 80.2526C42.2903 80.2914 42.2709 80.3367 42.2709 80.3895L42.2245 83.2587C42.2159 83.7579 42.0703 84.1375 41.7868 84.3952C41.5032 84.6539 41.1183 84.779 40.632 84.7715C40.1522 84.7639 39.7748 84.6259 39.4998 84.3585C39.2249 84.0911 39.0912 83.7072 39.0998 83.208L39.1462 80.3389C39.1462 80.286 39.13 80.2397 39.0944 80.1998C39.0588 80.1599 39.0114 80.1394 38.9521 80.1383C38.8993 80.1383 38.8529 80.1566 38.813 80.1955C38.7731 80.2343 38.7526 80.2796 38.7516 80.3324L38.7052 83.2016C38.6944 83.8388 38.8658 84.3208 39.2195 84.6453C39.5721 84.9698 40.0411 85.137 40.6266 85.1467C41.2185 85.1564 41.6951 85.0044 42.0596 84.6917C42.4229 84.379 42.6095 83.9035 42.6202 83.2662L42.6666 80.3971C42.6666 80.3443 42.6504 80.2979 42.6149 80.258C42.5793 80.2181 42.5318 80.1976 42.4725 80.1965L42.4704 80.1955Z" fill="white"/>
<path d="M50.2908 82.8134C50.2509 82.7843 50.2088 82.7746 50.1635 82.7832C50.1053 82.7951 50.0568 82.8349 50.0169 82.9029C49.949 83.0646 49.8498 83.222 49.7204 83.3751C49.591 83.5293 49.4368 83.6619 49.2578 83.7752C49.0799 83.8884 48.8804 83.9671 48.6616 84.0113C48.2044 84.104 47.799 84.0814 47.4464 83.9455C47.0938 83.8097 46.8049 83.5919 46.5806 83.2954C46.3563 82.9988 46.2043 82.6538 46.1245 82.2602C46.1159 82.2182 46.1083 82.1761 46.1019 82.1341L49.8983 81.3664C49.95 81.3556 49.991 81.3254 50.0212 81.2758C50.0514 81.2262 50.0611 81.1756 50.0503 81.1238C49.9608 80.7464 49.825 80.4337 49.6438 80.1847C49.4627 79.9367 49.2524 79.7404 49.012 79.5981C48.7715 79.4558 48.5139 79.3663 48.2389 79.3318C47.964 79.2973 47.6901 79.307 47.4194 79.362C47.0453 79.4374 46.7132 79.61 46.4221 79.8806C46.131 80.1502 45.9196 80.4973 45.787 80.92C45.6544 81.3427 45.6425 81.8246 45.7525 82.3659C45.8549 82.8748 46.0512 83.2964 46.3401 83.6307C46.6291 83.9649 46.9795 84.1978 47.3914 84.3283C47.8033 84.4598 48.2518 84.476 48.7349 84.379C49.1155 84.3024 49.4422 84.1353 49.715 83.8787C49.9889 83.6221 50.1991 83.345 50.3468 83.0463C50.3662 83.0085 50.3716 82.9676 50.3619 82.9223C50.3533 82.877 50.3285 82.8403 50.2897 82.8112L50.2908 82.8134ZM46.1029 81.2812C46.1612 80.9879 46.2625 80.7346 46.407 80.5211C46.5515 80.3076 46.7218 80.1351 46.917 80.0057C47.1122 79.8752 47.3062 79.7911 47.4992 79.7523C47.7763 79.6962 48.0556 79.7016 48.3381 79.7685C48.6195 79.8353 48.8761 79.9669 49.1069 80.1609C49.3376 80.3561 49.5037 80.6203 49.605 80.9556L49.6223 81.0429L46.0663 81.7621C46.062 81.5928 46.0738 81.4333 46.104 81.2812H46.1029Z" fill="white"/>
<path d="M55.2129 74.5326C55.1913 74.4841 55.1568 74.4496 55.1072 74.428C55.0576 74.4064 55.0069 74.4075 54.953 74.4323C54.8991 74.456 54.8635 74.4938 54.8463 74.5445C54.829 74.5951 54.8312 74.6447 54.8528 74.6932L56.1779 77.6875C56.1714 77.681 56.165 77.6746 56.1585 77.6681C55.9569 77.488 55.7315 77.3522 55.4824 77.2605C55.2334 77.1699 54.9757 77.1268 54.7093 77.1333C54.443 77.1398 54.1864 77.198 53.9395 77.3069C53.5427 77.4826 53.2322 77.7425 53.0068 78.0864C52.7815 78.4304 52.6564 78.8218 52.6316 79.2606C52.6068 79.6995 52.6941 80.1448 52.8936 80.5955C53.0931 81.0462 53.3637 81.4106 53.7055 81.6866C54.0473 81.9637 54.4215 82.1352 54.829 82.2031C55.2366 82.271 55.6388 82.2171 56.0356 82.0414C56.2997 81.9249 56.524 81.7643 56.7073 81.5605C56.8906 81.3578 57.0297 81.1324 57.1257 80.8844C57.2195 80.6408 57.268 80.396 57.2701 80.1512L57.6475 81.003C57.6691 81.0516 57.7036 81.0861 57.7532 81.1076C57.8017 81.1292 57.8535 81.1281 57.9085 81.1033C57.957 81.0818 57.9904 81.0451 58.0109 80.9933C58.0314 80.9416 58.0303 80.8909 58.0087 80.8435L55.215 74.5315L55.2129 74.5326ZM56.9898 80.0337C56.9747 80.4068 56.8755 80.7389 56.6911 81.0289C56.5068 81.319 56.2437 81.54 55.9008 81.692C55.5698 81.8387 55.2334 81.8818 54.8905 81.8214C54.5476 81.761 54.2317 81.6112 53.9427 81.3729C53.6538 81.1346 53.4241 80.8219 53.2537 80.4381C53.0812 80.0477 53.0036 79.666 53.023 79.2951C53.0424 78.9242 53.1448 78.5921 53.3324 78.301C53.5201 78.0099 53.7788 77.791 54.1099 77.6444C54.4463 77.4956 54.7859 77.4492 55.1277 77.5064C55.4695 77.5635 55.7822 77.7112 56.0668 77.9473C56.3515 78.1846 56.5801 78.4983 56.7537 78.8886C56.9262 79.279 57.006 79.6617 56.9909 80.0348L56.9898 80.0337Z" fill="white"/>
<path d="M60.8035 70.7254C60.7722 70.6833 60.7302 70.6574 60.6773 70.6467C60.6245 70.6369 60.5749 70.6488 60.5275 70.6844C60.48 70.72 60.4531 70.7642 60.4477 70.817C60.4423 70.8698 60.4552 70.9184 60.4865 70.9604L62.4392 73.5891C62.4316 73.5848 62.4241 73.5794 62.4165 73.574C62.1793 73.4425 61.9302 73.3606 61.6671 73.3261C61.4041 73.2915 61.1442 73.3077 60.8854 73.3724C60.6267 73.4371 60.3894 73.5503 60.1727 73.711C59.8244 73.9698 59.5786 74.2921 59.4341 74.6771C59.2907 75.062 59.2541 75.4717 59.3263 75.9052C59.3985 76.3386 59.5818 76.7537 59.8751 77.1495C60.1695 77.5452 60.5134 77.8406 60.907 78.0347C61.3016 78.2288 61.7049 78.315 62.1168 78.2913C62.5286 78.2676 62.9093 78.1263 63.2575 77.8676C63.4893 77.695 63.6727 77.4891 63.8064 77.2508C63.9401 77.0125 64.0263 76.7613 64.0651 76.4993C64.1029 76.2405 64.0964 75.9925 64.0446 75.7521L64.5999 76.5004C64.6312 76.5424 64.6732 76.5683 64.7261 76.5791C64.7789 76.5888 64.8285 76.5769 64.876 76.5413C64.918 76.5101 64.9428 76.4669 64.9514 76.4119C64.9601 76.357 64.9482 76.3084 64.9169 76.2653L60.8013 70.7232L60.8035 70.7254ZM63.6759 76.7354C63.5605 77.0589 63.3513 77.3327 63.0505 77.5559C62.7605 77.7716 62.4413 77.888 62.093 77.9042C61.7448 77.9215 61.4041 77.8449 61.0698 77.6756C60.7356 77.5063 60.4423 77.253 60.1921 76.9155C59.9377 76.5726 59.7781 76.2179 59.7145 75.8513C59.6509 75.4847 59.6789 75.1386 59.7975 74.8129C59.9161 74.4873 60.121 74.2167 60.411 74.001C60.7064 73.7811 61.0278 73.6625 61.3728 73.643C61.7189 73.6236 62.0564 73.698 62.3863 73.8673C62.7163 74.0355 63.0085 74.2921 63.2629 74.635C63.5174 74.9779 63.6791 75.3337 63.747 75.7003C63.815 76.068 63.7913 76.413 63.6748 76.7365L63.6759 76.7354Z" fill="white"/>
<path d="M67.2287 67.3354C67.1888 67.3009 67.1424 67.2847 67.0885 67.2858C67.0346 67.288 66.9893 67.3106 66.9505 67.3559C66.9116 67.4012 66.8955 67.4497 66.9019 67.5025C66.9084 67.5554 66.9311 67.5996 66.971 67.6341L67.6319 68.2045C67.3764 68.1236 67.1176 68.0934 66.8567 68.115C66.5947 68.1365 66.3434 68.2088 66.1041 68.3317C65.8636 68.4546 65.6512 68.6228 65.4668 68.8363C65.1832 69.1652 65.0129 69.5318 64.9536 69.9372C64.8954 70.3426 64.946 70.7469 65.1056 71.1491C65.2663 71.5524 65.5358 71.9168 65.9132 72.2435C66.2863 72.5659 66.6874 72.7805 67.1144 72.8894C67.5424 72.9972 67.9554 72.9961 68.3554 72.8851C68.7554 72.774 69.0983 72.5519 69.3862 72.2176C69.5749 71.9988 69.7097 71.7594 69.7905 71.4985C69.8714 71.2386 69.9048 70.9809 69.8908 70.7254C69.8768 70.4698 69.8218 70.2315 69.7258 70.0105L70.3976 70.5906C70.4375 70.6251 70.4838 70.6413 70.5377 70.6402C70.5916 70.6391 70.6369 70.6154 70.6757 70.5701C70.7102 70.5302 70.7253 70.4828 70.721 70.4267C70.7167 70.3706 70.6952 70.3264 70.6553 70.2919L67.2276 67.3354H67.2287ZM69.5393 71.0208C69.4972 71.3669 69.356 71.6785 69.1156 71.9578C68.8751 72.237 68.5872 72.4225 68.2508 72.5142C67.9155 72.6069 67.5651 72.6047 67.2017 72.5077C66.8383 72.4106 66.4944 72.223 66.1709 71.9438C65.8474 71.6645 65.6156 71.354 65.4765 71.0133C65.3374 70.6715 65.2911 70.3297 65.3374 69.9889C65.3849 69.6471 65.5261 69.3398 65.7623 69.066C66.0027 68.7878 66.2906 68.6013 66.627 68.5096C66.9623 68.4169 67.3095 68.4169 67.6686 68.5096C68.0276 68.6023 68.3608 68.7813 68.6702 69.0476C68.9937 69.3269 69.2298 69.6396 69.3797 69.9846C69.5285 70.3307 69.5824 70.6758 69.5404 71.0219L69.5393 71.0208Z" fill="white"/>
<path d="M73.0209 66.7208L70.8871 65.4862C70.6876 65.3709 70.5076 65.2102 70.3469 65.0021C70.1862 64.7951 70.0579 64.5665 69.962 64.3185C69.8671 64.0694 69.8164 63.8258 69.8099 63.5864C69.8035 63.3481 69.8531 63.1368 69.9587 62.9545C70.0116 62.864 70.0644 62.8014 70.1183 62.768C70.1722 62.7346 70.2089 62.7001 70.2283 62.6667C70.2542 62.6214 70.2585 62.5739 70.2412 62.5265C70.224 62.478 70.1895 62.4392 70.1377 62.41C70.0525 62.3604 69.9717 62.3745 69.8962 62.4532C69.8207 62.5308 69.7603 62.6095 69.714 62.6893C69.5522 62.9686 69.4714 63.25 69.4703 63.5336C69.4703 63.8182 69.5242 64.091 69.6342 64.3519C69.7323 64.5827 69.8595 64.7918 70.0148 64.9816L69.1026 64.4544C69.0573 64.4285 69.0077 64.4209 68.956 64.4317C68.9042 64.4436 68.8633 64.4749 68.8331 64.5255C68.8072 64.5708 68.8007 64.6204 68.8147 64.6743C68.8287 64.7282 68.8589 64.7681 68.9042 64.7951L72.8225 67.0615C72.8678 67.0874 72.9174 67.0949 72.9692 67.0842C73.0209 67.0723 73.0619 67.041 73.0921 66.9904C73.1179 66.9451 73.1244 66.8955 73.1104 66.8416C73.0964 66.7877 73.0662 66.7478 73.0209 66.7208Z" fill="white"/>
<path d="M75.5429 61.6822L71.2181 59.8816C71.1696 59.8611 71.12 59.86 71.0693 59.8784C71.0186 59.8967 70.982 59.9334 70.9593 59.9873C70.9388 60.0358 70.9399 60.0854 70.9604 60.1371C70.9809 60.1889 71.0165 60.2245 71.065 60.245L75.3898 62.0456C75.4383 62.0661 75.4879 62.0672 75.5386 62.0488C75.5892 62.0305 75.6259 61.9939 75.6485 61.9399C75.669 61.8914 75.668 61.8407 75.6475 61.7901C75.627 61.7394 75.5914 61.7027 75.5429 61.6822Z" fill="white"/>
<path d="M69.8455 59.8978L69.9188 59.928C70.004 59.9636 70.086 59.9636 70.1647 59.928C70.2434 59.8935 70.3027 59.8266 70.3437 59.7296C70.3814 59.639 70.3846 59.5528 70.3545 59.473C70.3243 59.3921 70.266 59.3349 70.1809 59.2994L70.1075 59.2692C70.0224 59.2336 69.9404 59.2336 69.8617 59.2692C69.783 59.3037 69.7258 59.3641 69.6903 59.4492C69.6493 59.5463 69.6439 59.6369 69.6741 59.7199C69.7032 59.8029 69.7603 59.8633 69.8455 59.8978Z" fill="white"/>
<path d="M45.0969 44.1308V43.968C48.1149 43.4785 51.4585 41.5215 51.4585 37.6065C51.4585 32.5905 46.5655 30.8373 41.4277 30.8373H29.317V31.0411C30.2551 32.3048 30.7446 34.099 30.7446 36.1789V54.0387C30.7446 56.1186 30.2551 57.9128 29.317 59.1764V59.3802H41.4277C46.8922 59.3802 52.5594 57.4642 52.5594 51.5512C52.5594 47.0248 48.8481 44.5783 45.0969 44.1297V44.1308ZM36.6566 34.8408C36.6566 33.1814 38.014 31.8207 39.6745 31.8164C43.2629 31.8164 45.3428 34.3448 45.3428 37.6884C45.3428 41.032 43.2629 43.6014 39.6335 43.6014H36.6566V34.8408ZM39.9592 58.4033C39.9495 58.4033 39.9387 58.4033 39.929 58.4033C38.1143 58.3958 36.6566 56.8992 36.6566 55.0846V44.6214H39.7554C43.7513 44.6214 46.3606 47.1499 46.3606 51.5534C46.3606 55.9568 43.7513 58.4033 39.9592 58.4033Z" fill="white"/>
<path d="M79.1334 43.4537H76.1693C74.6997 43.4537 74.0301 43.3912 73.6916 43.0073C73.3174 42.5836 73.2905 41.6531 73.2905 40.1727V37.6108C73.2905 37.5299 73.2247 37.4641 73.1438 37.4641C73.063 37.4641 72.9972 37.5299 72.9972 37.6108V40.1727C72.9972 43.3319 72.8894 43.4537 70.1183 43.4537H67.1543C67.0734 43.4537 67.0076 43.5195 67.0076 43.6003C67.0076 43.6812 67.0734 43.747 67.1543 43.747H70.1183C72.8904 43.747 72.9972 43.8699 72.9972 47.028V49.5899C72.9972 49.6708 73.063 49.7365 73.1438 49.7365C73.2247 49.7365 73.2905 49.6708 73.2905 49.5899V47.028C73.2905 45.5465 73.3174 44.6171 73.6916 44.1934C74.0312 43.8084 74.6997 43.747 76.1693 43.747H79.1334C79.2143 43.747 79.28 43.6812 79.28 43.6003C79.28 43.5195 79.2143 43.4537 79.1334 43.4537ZM74.1056 43.6154C73.836 43.6974 73.6312 43.8181 73.4705 44.0004C73.3174 44.174 73.2128 44.3939 73.1427 44.6829C72.9993 44.0823 72.719 43.7739 72.1799 43.6154C72.1799 43.6111 72.181 43.6068 72.181 43.6014C72.181 43.596 72.181 43.5917 72.1799 43.5874C72.719 43.4289 72.9993 43.1205 73.1427 42.52C73.2139 42.8089 73.3174 43.0289 73.4705 43.2025C73.6312 43.3836 73.836 43.5055 74.1056 43.5874C74.1056 43.5917 74.1045 43.5971 74.1045 43.6014C74.1045 43.6057 74.1045 43.6111 74.1056 43.6154Z" fill="white"/>
<path d="M70.9518 41.556C70.9895 41.556 71.0273 41.542 71.0553 41.5129C71.1124 41.4558 71.1124 41.362 71.0553 41.3048L70.0515 40.301C69.9943 40.2438 69.9016 40.2438 69.8434 40.301C69.7862 40.3581 69.7862 40.4519 69.8434 40.5091L70.8472 41.5129C70.8763 41.542 70.913 41.556 70.9507 41.556H70.9518Z" fill="white"/>
<path d="M69.6256 40.2298C69.6633 40.2298 69.7011 40.2158 69.7291 40.1867C69.7862 40.1295 69.7862 40.0357 69.7291 39.9786L69.2859 39.5354C69.2288 39.4783 69.1361 39.4783 69.0778 39.5354C69.0207 39.5926 69.0207 39.6853 69.0778 39.7435L69.521 40.1867C69.5501 40.2158 69.5868 40.2298 69.6245 40.2298H69.6256Z" fill="white"/>
<path d="M75.4437 45.6943C75.3865 45.6371 75.2938 45.6371 75.2356 45.6943C75.1774 45.7514 75.1784 45.8452 75.2356 45.9024L76.2394 46.9062C76.2685 46.9353 76.3052 46.9493 76.3429 46.9493C76.3807 46.9493 76.4184 46.9353 76.4464 46.9062C76.5036 46.8491 76.5036 46.7553 76.4464 46.6981L75.4426 45.6943H75.4437Z" fill="white"/>
<path d="M76.7699 47.0205C76.7128 46.9633 76.62 46.9633 76.5618 47.0205C76.5047 47.0776 76.5047 47.1714 76.5618 47.2286L77.006 47.6717C77.0352 47.7009 77.0718 47.7149 77.1096 47.7149C77.1473 47.7149 77.185 47.7009 77.2131 47.6717C77.2702 47.6146 77.2702 47.5208 77.2131 47.4636L76.7688 47.0205H76.7699Z" fill="white"/>
<path d="M71.0553 45.6878C70.9981 45.6307 70.9054 45.6307 70.8472 45.6878L69.7959 46.7391C69.7388 46.7962 69.7388 46.89 69.7959 46.9472C69.825 46.9763 69.8617 46.9903 69.8994 46.9903C69.9372 46.9903 69.9749 46.9763 70.0029 46.9472L71.0542 45.8959C71.1113 45.8388 71.1113 45.745 71.0542 45.6878H71.0553Z" fill="white"/>
<path d="M76.4486 40.301C76.3915 40.2438 76.2977 40.2438 76.2405 40.301L75.2367 41.3048C75.1795 41.362 75.1795 41.4558 75.2367 41.5129C75.2658 41.542 75.3024 41.556 75.3402 41.556C75.3779 41.556 75.4157 41.542 75.4437 41.5129L76.4475 40.5091C76.5047 40.4519 76.5047 40.3581 76.4475 40.301H76.4486Z" fill="white"/>
<path d="M76.7699 40.1867L77.2141 39.7435C77.2713 39.6864 77.2713 39.5936 77.2141 39.5354C77.157 39.4783 77.0643 39.4783 77.006 39.5354L76.5618 39.9786C76.5047 40.0357 76.5047 40.1284 76.5618 40.1867C76.5909 40.2158 76.6276 40.2298 76.6653 40.2298C76.7031 40.2298 76.7408 40.2158 76.7688 40.1867H76.7699Z" fill="white"/>
<path d="M69.7291 47.0205C69.6719 46.9633 69.5792 46.9633 69.521 47.0205L69.0778 47.4636C69.0207 47.5208 69.0207 47.6146 69.0778 47.6717C69.1069 47.7009 69.1436 47.7149 69.1813 47.7149C69.2191 47.7149 69.2568 47.7009 69.2849 47.6717L69.728 47.2286C69.7852 47.1714 69.7852 47.0776 69.728 47.0205H69.7291Z" fill="white"/>
<path d="M68.7889 41.7458C68.7565 41.8202 68.7921 41.9065 68.8665 41.9388L70.2348 42.5221C70.2531 42.5297 70.2725 42.534 70.2919 42.534C70.3491 42.534 70.403 42.5006 70.4267 42.4445C70.459 42.3701 70.4235 42.2838 70.3491 42.2515L68.9808 41.6682C68.9064 41.6358 68.8201 41.6714 68.7878 41.7458H68.7889Z" fill="white"/>
<path d="M77.419 45.263L76.0507 44.6796C75.9764 44.6473 75.8901 44.6829 75.8577 44.7573C75.8254 44.8317 75.861 44.9179 75.9354 44.9503L77.3037 45.5336C77.322 45.5411 77.3414 45.5455 77.3608 45.5455C77.4179 45.5455 77.4719 45.512 77.4956 45.456C77.5279 45.3816 77.4923 45.2953 77.4179 45.263H77.419Z" fill="white"/>
<path d="M74.8054 39.3241L74.2221 40.6924C74.1897 40.7668 74.2253 40.853 74.2997 40.8854C74.318 40.8929 74.3374 40.8972 74.3568 40.8972C74.414 40.8972 74.4679 40.8638 74.4916 40.8078L75.0749 39.4395C75.1073 39.3651 75.0717 39.2788 74.9973 39.2465C74.9229 39.2141 74.8367 39.2497 74.8043 39.3241H74.8054Z" fill="white"/>
<path d="M71.2871 47.9542C71.3054 47.9618 71.3248 47.9661 71.3442 47.9661C71.4014 47.9661 71.4553 47.9327 71.479 47.8766L72.0624 46.5083C72.0947 46.4339 72.0591 46.3477 71.9847 46.3153C71.9103 46.283 71.8241 46.3186 71.7917 46.393L71.2084 47.7612C71.176 47.8356 71.2116 47.9219 71.286 47.9542H71.2871Z" fill="white"/>
<path d="M71.3755 39.2098C71.3 39.24 71.2634 39.3252 71.2947 39.4006L71.8499 40.7808C71.8726 40.8379 71.9287 40.8724 71.9858 40.8724C72.0041 40.8724 72.0225 40.8692 72.0408 40.8616C72.1163 40.8315 72.1529 40.7463 72.1227 40.6708L71.5675 39.2907C71.5373 39.2152 71.4521 39.1785 71.3766 39.2087L71.3755 39.2098Z" fill="white"/>
<path d="M74.855 48.0017C74.8733 48.0017 74.8916 47.9984 74.91 47.9909C74.9854 47.9607 75.0221 47.8755 74.9919 47.8L74.4366 46.4199C74.4064 46.3444 74.3202 46.3078 74.2458 46.338C74.1703 46.3682 74.1336 46.4544 74.1638 46.5288L74.7191 47.9089C74.7418 47.9661 74.7968 48.0006 74.855 48.0006V48.0017Z" fill="white"/>
<path d="M76.0173 42.59C76.0356 42.59 76.054 42.5868 76.0723 42.5793L77.4524 42.024C77.5279 41.9938 77.5646 41.9086 77.5344 41.8331C77.5042 41.7576 77.4179 41.721 77.3435 41.7512L75.9634 42.3065C75.8879 42.3367 75.8513 42.4218 75.8815 42.4973C75.9041 42.5545 75.9602 42.589 76.0173 42.589V42.59Z" fill="white"/>
<path d="M70.2132 44.6214L68.8331 45.1767C68.7576 45.2069 68.7209 45.2932 68.7511 45.3676C68.7738 45.4247 68.8298 45.4592 68.8881 45.4592C68.9064 45.4592 68.9247 45.456 68.943 45.4484L70.3232 44.8931C70.3986 44.8629 70.4353 44.7767 70.4051 44.7023C70.3749 44.6268 70.2887 44.5902 70.2143 44.6203L70.2132 44.6214Z" fill="white"/>
<path d="M9.16387 43.747H12.1279C12.2088 43.747 12.2746 43.6812 12.2746 43.6003C12.2746 43.5195 12.2088 43.4537 12.1279 43.4537H9.16387C7.69424 43.4537 7.02466 43.3912 6.6861 43.0073C6.31195 42.5836 6.285 41.6531 6.285 40.1727V37.6108C6.285 37.5299 6.21922 37.4641 6.13836 37.4641C6.05749 37.4641 5.99172 37.5299 5.99172 37.6108V40.1727C5.99172 43.3319 5.8839 43.4537 3.11285 43.4537H0.146639C0.065772 43.4537 0 43.5195 0 43.6003C0 43.6812 0.065772 43.747 0.146639 43.747H3.11069C5.88282 43.747 5.98956 43.8699 5.98956 47.028V49.5899C5.98956 49.6708 6.05533 49.7365 6.1362 49.7365C6.21707 49.7365 6.28284 49.6708 6.28284 49.5899V47.028C6.28284 45.5465 6.3098 44.6171 6.68394 44.1934C7.02358 43.8084 7.69209 43.747 9.16171 43.747H9.16387ZM6.13728 44.6818C5.99388 44.0812 5.71354 43.7729 5.17442 43.6144C5.17442 43.61 5.1755 43.6057 5.1755 43.6003C5.1755 43.595 5.1755 43.5906 5.17442 43.5863C5.71354 43.4278 5.99388 43.1195 6.13728 42.5189C6.20844 42.8078 6.31195 43.0278 6.46506 43.2014C6.62572 43.3825 6.83058 43.5044 7.10014 43.5863C7.10014 43.5906 7.09906 43.596 7.09906 43.6003C7.09906 43.6047 7.09906 43.61 7.10014 43.6144C6.83058 43.6963 6.62572 43.8171 6.46506 43.9993C6.31195 44.1729 6.20736 44.3928 6.13728 44.6818Z" fill="white"/>
<path d="M3.84281 41.5129C3.87193 41.542 3.90858 41.556 3.94632 41.556C3.98406 41.556 4.0218 41.542 4.04983 41.5129C4.10698 41.4558 4.10698 41.362 4.04983 41.3048L3.046 40.301C2.98886 40.2438 2.89505 40.2438 2.8379 40.301C2.78076 40.3581 2.78076 40.4519 2.8379 40.5091L3.84174 41.5129H3.84281Z" fill="white"/>
<path d="M2.5155 40.1867C2.54461 40.2158 2.58127 40.2298 2.61901 40.2298C2.65675 40.2298 2.69449 40.2158 2.72252 40.1867C2.77967 40.1295 2.77967 40.0357 2.72252 39.9786L2.27937 39.5354C2.22222 39.4783 2.1295 39.4783 2.07127 39.5354C2.01413 39.5926 2.01413 39.6853 2.07127 39.7435L2.51442 40.1867H2.5155Z" fill="white"/>
<path d="M8.23012 45.6943C8.17297 45.7514 8.17297 45.8452 8.23012 45.9024L9.23395 46.9062C9.26306 46.9353 9.29972 46.9493 9.33746 46.9493C9.37519 46.9493 9.41293 46.9353 9.44097 46.9062C9.49811 46.8491 9.49811 46.7553 9.44097 46.6981L8.43714 45.6943C8.37999 45.6371 8.28618 45.6371 8.22904 45.6943H8.23012Z" fill="white"/>
<path d="M9.55742 47.0205C9.50027 47.0776 9.50027 47.1714 9.55742 47.2286L10.0016 47.6717C10.0308 47.7009 10.0674 47.7149 10.1052 47.7149C10.1429 47.7149 10.1806 47.7009 10.2087 47.6717C10.2658 47.6146 10.2658 47.5208 10.2087 47.4636L9.76444 47.0205C9.70729 46.9633 9.61456 46.9633 9.55634 47.0205H9.55742Z" fill="white"/>
<path d="M3.84281 45.6878L2.79153 46.7391C2.73439 46.7962 2.73439 46.89 2.79153 46.9472C2.82064 46.9763 2.8573 46.9903 2.89504 46.9903C2.93278 46.9903 2.97052 46.9763 2.99855 46.9472L4.04983 45.8959C4.10697 45.8388 4.10697 45.745 4.04983 45.6878C3.99268 45.6307 3.89887 45.6307 3.84173 45.6878H3.84281Z" fill="white"/>
<path d="M9.44313 40.301C9.38598 40.2438 9.29325 40.2438 9.23503 40.301L8.2312 41.3048C8.17405 41.362 8.17405 41.4558 8.2312 41.5129C8.26031 41.542 8.29697 41.556 8.33471 41.556C8.37245 41.556 8.41019 41.542 8.43822 41.5129L9.44205 40.5091C9.4992 40.4519 9.4992 40.3581 9.44205 40.301H9.44313Z" fill="white"/>
<path d="M9.76445 40.1867L10.2087 39.7435C10.2658 39.6864 10.2658 39.5936 10.2087 39.5354C10.1515 39.4783 10.0577 39.4783 10.0006 39.5354L9.55635 39.9786C9.4992 40.0357 9.4992 40.1284 9.55635 40.1867C9.58546 40.2158 9.62212 40.2298 9.65986 40.2298C9.6976 40.2298 9.73534 40.2158 9.76337 40.1867H9.76445Z" fill="white"/>
<path d="M2.51551 47.0205L2.07235 47.4636C2.01521 47.5208 2.01521 47.6146 2.07235 47.6717C2.10147 47.7009 2.13813 47.7149 2.17586 47.7149C2.2136 47.7149 2.25134 47.7009 2.27937 47.6717L2.72253 47.2286C2.77967 47.1714 2.77967 47.0776 2.72253 47.0205C2.66538 46.9633 2.57157 46.9633 2.51443 47.0205H2.51551Z" fill="white"/>
<path d="M1.86103 41.9377L3.2293 42.521C3.24763 42.5286 3.26704 42.5329 3.28645 42.5329C3.34359 42.5329 3.39751 42.4995 3.42123 42.4434C3.45357 42.369 3.41799 42.2827 3.34359 42.2504L1.97532 41.6671C1.90092 41.6347 1.81467 41.6703 1.78232 41.7447C1.74997 41.8191 1.78555 41.9054 1.85995 41.9377H1.86103Z" fill="white"/>
<path d="M10.3564 45.5444C10.4135 45.5444 10.4675 45.511 10.4912 45.4549C10.5235 45.3805 10.4879 45.2942 10.4135 45.2619L9.04527 44.6786C8.97087 44.6462 8.88461 44.6818 8.85227 44.7562C8.81992 44.8306 8.8555 44.9169 8.9299 44.9492L10.2982 45.5325C10.3165 45.5401 10.3359 45.5444 10.3553 45.5444H10.3564Z" fill="white"/>
<path d="M7.79991 39.3241L7.21658 40.6924C7.18424 40.7668 7.21982 40.853 7.29422 40.8854C7.31255 40.8929 7.33195 40.8972 7.35136 40.8972C7.40851 40.8972 7.46242 40.8638 7.48614 40.8078L8.06946 39.4395C8.10181 39.3651 8.06623 39.2788 7.99183 39.2465C7.91743 39.2141 7.83117 39.2497 7.79883 39.3241H7.79991Z" fill="white"/>
<path d="M4.98034 46.3164C4.90594 46.2841 4.81968 46.3197 4.78733 46.3941L4.20401 47.7623C4.17166 47.8367 4.20725 47.923 4.28164 47.9553C4.29997 47.9629 4.31938 47.9672 4.33879 47.9672C4.39594 47.9672 4.44985 47.9338 4.47357 47.8777L5.05689 46.5094C5.08924 46.435 5.05366 46.3488 4.97926 46.3164H4.98034Z" fill="white"/>
<path d="M4.37006 39.2098C4.29459 39.24 4.25793 39.3252 4.28812 39.4006L4.8434 40.7808C4.86605 40.8379 4.92104 40.8724 4.97926 40.8724C4.99759 40.8724 5.01592 40.8692 5.03425 40.8616C5.10973 40.8315 5.14639 40.7463 5.1162 40.6708L4.56091 39.2907C4.53072 39.2152 4.44554 39.1785 4.37006 39.2087V39.2098Z" fill="white"/>
<path d="M7.23923 46.339C7.16376 46.3692 7.1271 46.4555 7.15729 46.5299L7.71258 47.91C7.73522 47.9672 7.79129 48.0017 7.84843 48.0017C7.86676 48.0017 7.88509 47.9984 7.90342 47.9909C7.9789 47.9607 8.01556 47.8755 7.98429 47.8L7.429 46.4199C7.39881 46.3444 7.31255 46.3078 7.23815 46.338L7.23923 46.339Z" fill="white"/>
<path d="M9.01183 42.59C9.03016 42.59 9.04849 42.5868 9.06682 42.5793L10.447 42.024C10.5224 41.9938 10.5591 41.9086 10.5289 41.8331C10.4987 41.7576 10.4125 41.721 10.3381 41.7512L8.95792 42.3065C8.88245 42.3367 8.84579 42.4218 8.87598 42.4973C8.89862 42.5545 8.95361 42.589 9.01183 42.589V42.59Z" fill="white"/>
<path d="M3.39858 44.7023C3.36839 44.6268 3.28213 44.5902 3.20773 44.6203L1.8276 45.1756C1.75212 45.2058 1.71546 45.2921 1.74565 45.3665C1.76829 45.4236 1.82328 45.4581 1.88259 45.4581C1.90092 45.4581 1.91925 45.4549 1.93758 45.4473L3.31771 44.8921C3.39318 44.8619 3.42984 44.7756 3.39965 44.7012L3.39858 44.7023Z" fill="white"/>
</g>
<defs>
<clipPath id="clip0_3_130">
<rect width="79.28" height="86.0955" fill="white"/>
</clipPath>
</defs>
</svg>
