<svg width="18" height="18" viewBox="0 0 20 20" fill="none" xmlns="http://www.w3.org/2000/svg">
<g clip-path="url(#clip0_3_174)">
<path d="M8.18974 10.2342H0.240385C0.107102 10.2342 0 10.1271 0 9.9938C0 9.86052 0.107102 9.75342 0.240385 9.75342H8.18974C8.32302 9.75342 8.43012 9.86052 8.43012 9.9938C8.43012 10.1271 8.32302 10.2342 8.18974 10.2342Z" fill="white"/>
<path d="M19.752 10.2342H11.8003C11.667 10.2342 11.5599 10.1271 11.5599 9.9938C11.5599 9.86052 11.667 9.75342 11.8003 9.75342H19.752C19.8853 9.75342 19.9924 9.86052 19.9924 9.9938C19.9924 10.1271 19.8853 10.2342 19.752 10.2342Z" fill="white"/>
<path d="M9.99618 7.88033C9.8629 7.88033 9.7558 7.77323 9.7558 7.63994V0.240385C9.7558 0.107102 9.8629 0 9.99618 0C10.1295 0 10.2366 0.107102 10.2366 0.240385V7.63994C10.2366 7.77323 10.1295 7.88033 9.99618 7.88033Z" fill="white"/>
<path d="M9.99618 19.99C9.8629 19.99 9.7558 19.8829 9.7558 19.7496V12.3501C9.7558 12.2168 9.8629 12.1097 9.99618 12.1097C10.1295 12.1097 10.2366 12.2168 10.2366 12.3501V19.7496C10.2366 19.8829 10.1295 19.99 9.99618 19.99Z" fill="white"/>
<path d="M6.42612 6.6665C6.36424 6.6665 6.30474 6.6427 6.25714 6.59748L4.62205 4.96239C4.52922 4.86957 4.52922 4.71725 4.62205 4.62443C4.71487 4.5316 4.86719 4.5316 4.96001 4.62443L6.5951 6.25952C6.68792 6.35234 6.68792 6.50466 6.5951 6.59748C6.5475 6.64508 6.488 6.6665 6.42612 6.6665Z" fill="white"/>
<path d="M4.26743 4.50544C4.20555 4.50544 4.14605 4.48163 4.09845 4.43641L3.37491 3.71288C3.28209 3.62006 3.28209 3.46774 3.37491 3.37491C3.46774 3.28209 3.62006 3.28209 3.71288 3.37491L4.43641 4.09845C4.52924 4.19127 4.52924 4.34359 4.43641 4.43641C4.38881 4.48401 4.32931 4.50544 4.26743 4.50544Z" fill="white"/>
<path d="M15.2085 15.4489C15.1466 15.4489 15.0871 15.4251 15.0395 15.3799L13.4044 13.7448C13.3116 13.6519 13.3116 13.4996 13.4044 13.4068C13.4972 13.314 13.6496 13.314 13.7424 13.4068L15.3775 15.0419C15.4703 15.1347 15.4703 15.287 15.3775 15.3799C15.3299 15.4275 15.2704 15.4489 15.2085 15.4489Z" fill="white"/>
<path d="M16.458 16.696C16.3961 16.696 16.3366 16.6722 16.289 16.627L15.5655 15.9035C15.4727 15.8106 15.4727 15.6583 15.5655 15.5655C15.6583 15.4727 15.8106 15.4727 15.9035 15.5655L16.627 16.289C16.7198 16.3819 16.7198 16.5342 16.627 16.627C16.5794 16.6746 16.5199 16.696 16.458 16.696Z" fill="white"/>
<path d="M4.71489 15.5155C4.65301 15.5155 4.59351 15.4917 4.5459 15.4465C4.45308 15.3537 4.45308 15.2014 4.5459 15.1085L6.25954 13.3949C6.35236 13.3021 6.50468 13.3021 6.5975 13.3949C6.69032 13.4877 6.69032 13.64 6.5975 13.7329L4.88387 15.4465C4.83627 15.4941 4.77677 15.5155 4.71489 15.5155Z" fill="white"/>
<path d="M13.5734 6.6665C13.5115 6.6665 13.452 6.6427 13.4044 6.59748C13.3116 6.50466 13.3116 6.35234 13.4044 6.25952L15.0395 4.62443C15.1323 4.5316 15.2847 4.5316 15.3775 4.62443C15.4703 4.71725 15.4703 4.86957 15.3775 4.96239L13.7424 6.59748C13.6948 6.64508 13.6353 6.6665 13.5734 6.6665Z" fill="white"/>
<path d="M15.7345 4.50544C15.6726 4.50544 15.6131 4.48163 15.5655 4.43641C15.4727 4.34359 15.4727 4.19127 15.5655 4.09845L16.289 3.37491C16.3819 3.28209 16.5342 3.28209 16.627 3.37491C16.7198 3.46774 16.7198 3.62006 16.627 3.71288L15.9035 4.43641C15.8559 4.48401 15.7964 4.50544 15.7345 4.50544Z" fill="white"/>
<path d="M3.5439 16.696C3.48202 16.696 3.42252 16.6722 3.37491 16.627C3.28209 16.5342 3.28209 16.3819 3.37491 16.289L4.09845 15.5655C4.19127 15.4727 4.34359 15.4727 4.43641 15.5655C4.52924 15.6583 4.52924 15.8106 4.43641 15.9035L3.71288 16.627C3.66528 16.6746 3.60578 16.696 3.5439 16.696Z" fill="white"/>
<path d="M5.35273 8.25638C5.32179 8.25638 5.28847 8.24924 5.25991 8.23734L3.03219 7.2877C2.91081 7.23534 2.85369 7.09492 2.90605 6.97353C2.95841 6.85215 3.09883 6.79503 3.22021 6.84739L5.44794 7.79703C5.56932 7.84939 5.62644 7.98981 5.57408 8.1112C5.536 8.20164 5.44794 8.25638 5.35273 8.25638Z" fill="white"/>
<path d="M16.8674 13.1617C16.8364 13.1617 16.8031 13.1545 16.7746 13.1426L14.5468 12.193C14.4255 12.1406 14.3683 12.0002 14.4207 11.8788C14.4731 11.7574 14.6135 11.7003 14.7349 11.7527L16.9626 12.7023C17.084 12.7547 17.1411 12.8951 17.0887 13.0165C17.0506 13.1069 16.9626 13.1617 16.8674 13.1617Z" fill="white"/>
<path d="M11.974 5.59312C11.9431 5.59312 11.9097 5.58598 11.8812 5.57408C11.7598 5.52172 11.7027 5.38129 11.755 5.25991L12.7047 3.03219C12.757 2.91081 12.8975 2.85369 13.0189 2.90605C13.1402 2.95841 13.1974 3.09883 13.145 3.22021L12.1954 5.44794C12.1573 5.53838 12.0692 5.59312 11.974 5.59312Z" fill="white"/>
<path d="M7.06874 17.1054C7.0378 17.1054 7.00448 17.0982 6.97592 17.0863C6.85453 17.034 6.79741 16.8936 6.84977 16.7722L7.79941 14.5445C7.85177 14.4231 7.99219 14.366 8.11358 14.4183C8.23496 14.4707 8.29208 14.6111 8.23972 14.7325L7.29008 16.9602C7.252 17.0506 7.16394 17.1054 7.06874 17.1054Z" fill="white"/>
<path d="M8.11117 5.55263C8.01597 5.55263 7.92552 5.49551 7.88982 5.40269L6.98541 3.15593C6.93542 3.03216 6.99493 2.89412 7.11869 2.84414C7.24245 2.79416 7.38049 2.85366 7.43047 2.97742L8.33489 5.22418C8.38487 5.34795 8.32537 5.48599 8.20161 5.53597C8.17305 5.54787 8.14211 5.55263 8.11117 5.55263Z" fill="white"/>
<path d="M12.7832 17.1625C12.688 17.1625 12.5976 17.1054 12.5618 17.0126L11.6574 14.7658C11.6075 14.642 11.667 14.504 11.7907 14.454C11.9121 14.404 12.0525 14.4635 12.1025 14.5873L13.0069 16.834C13.0569 16.9578 12.9974 17.0959 12.8736 17.1458C12.8451 17.1577 12.8141 17.1625 12.7832 17.1625Z" fill="white"/>
<path d="M14.6777 8.35155C14.5825 8.35155 14.4921 8.29443 14.4564 8.20161C14.4064 8.07785 14.4659 7.9398 14.5897 7.88982L16.8364 6.98541C16.9578 6.93542 17.0982 6.99493 17.1482 7.11869C17.1982 7.24245 17.1387 7.38049 17.0149 7.43047L14.7682 8.33489C14.7396 8.34679 14.7087 8.35155 14.6777 8.35155Z" fill="white"/>
<path d="M3.06786 13.0236C2.97266 13.0236 2.88222 12.9665 2.84652 12.8736C2.79654 12.7499 2.85604 12.6118 2.9798 12.5618L5.22656 11.6574C5.34795 11.6075 5.48837 11.667 5.53835 11.7907C5.58833 11.9145 5.52883 12.0525 5.40507 12.1025L3.15831 13.0069C3.12975 13.0188 3.0988 13.0236 3.07024 13.0236H3.06786Z" fill="white"/>
<path d="M9.99618 15.8178C9.8629 15.8178 9.75579 15.7107 9.75579 15.5774C9.75579 10.4317 9.57967 10.2318 5.06711 10.2318C4.93382 10.2318 4.82672 10.1247 4.82672 9.99142C4.82672 9.85814 4.93382 9.75104 5.06711 9.75104C9.58205 9.75104 9.75579 9.55111 9.75579 4.40783C9.75579 4.27455 9.8629 4.16745 9.99618 4.16745C10.1295 4.16745 10.2366 4.27455 10.2366 4.40783C10.2366 6.8212 10.2794 8.33491 10.8911 9.02512C11.4432 9.65107 12.5333 9.75342 14.9276 9.75342C15.0609 9.75342 15.168 9.86052 15.168 9.9938C15.168 10.1271 15.0609 10.2342 14.9276 10.2342C12.5333 10.2342 11.4432 10.3341 10.8911 10.9625C10.2818 11.6527 10.2366 13.1664 10.2366 15.5798C10.2366 15.713 10.1295 15.8202 9.99618 15.8202V15.8178ZM8.35157 9.9938C9.27979 10.2437 9.75579 10.7483 9.99618 11.755C10.1104 11.2838 10.2818 10.9268 10.5317 10.6436C10.8078 10.3294 11.1648 10.1271 11.6432 9.9938C11.1648 9.86052 10.8078 9.65821 10.5317 9.34405C10.2818 9.06082 10.1128 8.70382 9.99618 8.23257C9.75579 9.23933 9.27979 9.7439 8.35157 9.9938Z" fill="white"/>
</g>
<defs>
<clipPath id="clip0_3_174">
<rect width="19.99" height="19.99" fill="white"/>
</clipPath>
</defs>
</svg>
